G04*
G04 #@! TF.GenerationSoftware,Altium Limited,Altium Designer,22.8.2 (66)*
G04*
G04 Layer_Physical_Order=2*
G04 Layer_Color=16711680*
%FSLAX44Y44*%
%MOMM*%
G71*
G04*
G04 #@! TF.SameCoordinates,9A62F31F-D48D-475B-933D-7D02DB87FC69*
G04*
G04*
G04 #@! TF.FilePolarity,Positive*
G04*
G01*
G75*
%ADD19C,10.0000*%
%ADD20C,1.6000*%
%ADD21O,1.3000X1.5000*%
%ADD22C,3.0000*%
%ADD23C,2.3000*%
G36*
X2478362Y1189355D02*
X1438080D01*
Y1005970D01*
X1309380D01*
Y1189355D01*
X157498D01*
X157498Y1730992D01*
X2478362Y1730992D01*
X2478362Y1189355D01*
D02*
G37*
G36*
X2478362Y647718D02*
X157498D01*
X157498Y1164234D01*
X1284259D01*
Y1005970D01*
X1284742Y1001069D01*
X1286171Y996357D01*
X1288493Y992013D01*
X1291617Y988207D01*
X1295423Y985083D01*
X1299767Y982761D01*
X1304479Y981332D01*
X1309380Y980849D01*
X1438080D01*
X1442981Y981332D01*
X1447693Y982761D01*
X1452036Y985083D01*
X1455843Y988207D01*
X1458967Y992013D01*
X1461289Y996357D01*
X1462718Y1001069D01*
X1463201Y1005970D01*
Y1164234D01*
X2478362D01*
X2478362Y647718D01*
D02*
G37*
%LPC*%
G36*
X2041153Y1673130D02*
X2035408D01*
X2029733Y1672231D01*
X2024269Y1670456D01*
X2019150Y1667848D01*
X2014502Y1664471D01*
X2010439Y1660408D01*
X2007063Y1655760D01*
X2004454Y1650641D01*
X2002679Y1645177D01*
X2001780Y1639503D01*
Y1633757D01*
X2002679Y1628083D01*
X2004454Y1622619D01*
X2007063Y1617500D01*
X2010439Y1612852D01*
X2014502Y1608789D01*
X2019150Y1605412D01*
X2024269Y1602804D01*
X2029733Y1601029D01*
X2035408Y1600130D01*
X2041153D01*
X2046827Y1601029D01*
X2052291Y1602804D01*
X2057410Y1605412D01*
X2062058Y1608789D01*
X2066121Y1612852D01*
X2069498Y1617500D01*
X2072106Y1622619D01*
X2073881Y1628083D01*
X2074780Y1633757D01*
Y1639503D01*
X2073881Y1645177D01*
X2072106Y1650641D01*
X2069498Y1655760D01*
X2066121Y1660408D01*
X2062058Y1664471D01*
X2057410Y1667848D01*
X2052291Y1670456D01*
X2046827Y1672231D01*
X2041153Y1673130D01*
D02*
G37*
G36*
X862639D02*
X856894D01*
X851219Y1672231D01*
X845755Y1670456D01*
X840636Y1667848D01*
X835988Y1664471D01*
X831926Y1660408D01*
X828549Y1655760D01*
X825941Y1650641D01*
X824165Y1645177D01*
X823267Y1639503D01*
Y1633757D01*
X824165Y1628083D01*
X825941Y1622619D01*
X828549Y1617500D01*
X831926Y1612852D01*
X835988Y1608789D01*
X840636Y1605412D01*
X845755Y1602804D01*
X851219Y1601029D01*
X856894Y1600130D01*
X862639D01*
X868314Y1601029D01*
X873778Y1602804D01*
X878897Y1605412D01*
X883545Y1608789D01*
X887607Y1612852D01*
X890984Y1617500D01*
X893593Y1622619D01*
X895368Y1628083D01*
X896267Y1633757D01*
Y1639503D01*
X895368Y1645177D01*
X893593Y1650641D01*
X890984Y1655760D01*
X887607Y1660408D01*
X883545Y1664471D01*
X878897Y1667848D01*
X873778Y1670456D01*
X868314Y1672231D01*
X862639Y1673130D01*
D02*
G37*
G36*
X2307538Y1647493D02*
X2301242D01*
X2295023Y1646508D01*
X2289035Y1644563D01*
X2283425Y1641704D01*
X2278332Y1638004D01*
X2273880Y1633551D01*
X2270179Y1628458D01*
X2267321Y1622848D01*
X2265375Y1616860D01*
X2264390Y1610641D01*
Y1604345D01*
X2265375Y1598127D01*
X2267321Y1592139D01*
X2270179Y1586529D01*
X2273880Y1581435D01*
X2278332Y1576983D01*
X2283425Y1573282D01*
X2289035Y1570424D01*
X2295023Y1568478D01*
X2301242Y1567493D01*
X2307538D01*
X2313757Y1568478D01*
X2319745Y1570424D01*
X2325355Y1573282D01*
X2330448Y1576983D01*
X2334900Y1581435D01*
X2338601Y1586529D01*
X2341460Y1592139D01*
X2343405Y1598127D01*
X2344390Y1604345D01*
Y1610641D01*
X2343405Y1616860D01*
X2341460Y1622848D01*
X2338601Y1628458D01*
X2334900Y1633551D01*
X2330448Y1638004D01*
X2325355Y1641704D01*
X2319745Y1644563D01*
X2313757Y1646508D01*
X2307538Y1647493D01*
D02*
G37*
G36*
X1775369Y1647490D02*
X1769073D01*
X1762854Y1646505D01*
X1756866Y1644559D01*
X1751256Y1641701D01*
X1746162Y1638000D01*
X1741710Y1633548D01*
X1738009Y1628454D01*
X1735151Y1622845D01*
X1733206Y1616857D01*
X1732221Y1610638D01*
Y1604342D01*
X1733206Y1598123D01*
X1735151Y1592135D01*
X1738009Y1586525D01*
X1741710Y1581432D01*
X1746162Y1576980D01*
X1751256Y1573279D01*
X1756866Y1570421D01*
X1762854Y1568475D01*
X1769073Y1567490D01*
X1775369D01*
X1781587Y1568475D01*
X1787575Y1570421D01*
X1793185Y1573279D01*
X1798279Y1576980D01*
X1802731Y1581432D01*
X1806432Y1586525D01*
X1809290Y1592135D01*
X1811236Y1598123D01*
X1812221Y1604342D01*
Y1610638D01*
X1811236Y1616857D01*
X1809290Y1622845D01*
X1806432Y1628454D01*
X1802731Y1633548D01*
X1798279Y1638000D01*
X1793185Y1641701D01*
X1787575Y1644559D01*
X1781587Y1646505D01*
X1775369Y1647490D01*
D02*
G37*
G36*
X1127726D02*
X1121430D01*
X1115211Y1646505D01*
X1109223Y1644559D01*
X1103613Y1641701D01*
X1098520Y1638000D01*
X1094068Y1633548D01*
X1090367Y1628454D01*
X1087508Y1622845D01*
X1085563Y1616857D01*
X1084578Y1610638D01*
Y1604342D01*
X1085563Y1598123D01*
X1087508Y1592135D01*
X1090367Y1586525D01*
X1094068Y1581432D01*
X1098520Y1576980D01*
X1103613Y1573279D01*
X1109223Y1570421D01*
X1115211Y1568475D01*
X1121430Y1567490D01*
X1127726D01*
X1133945Y1568475D01*
X1139933Y1570421D01*
X1145543Y1573279D01*
X1150636Y1576980D01*
X1155088Y1581432D01*
X1158789Y1586525D01*
X1161647Y1592135D01*
X1163593Y1598123D01*
X1164578Y1604342D01*
Y1610638D01*
X1163593Y1616857D01*
X1161647Y1622845D01*
X1158789Y1628454D01*
X1155088Y1633548D01*
X1150636Y1638000D01*
X1145543Y1641701D01*
X1139933Y1644559D01*
X1133945Y1646505D01*
X1127726Y1647490D01*
D02*
G37*
G36*
X598118D02*
X591822D01*
X585603Y1646505D01*
X579615Y1644559D01*
X574005Y1641701D01*
X568912Y1638000D01*
X564460Y1633548D01*
X560759Y1628454D01*
X557901Y1622845D01*
X555955Y1616857D01*
X554970Y1610638D01*
Y1604342D01*
X555955Y1598123D01*
X557901Y1592135D01*
X560759Y1586525D01*
X564460Y1581432D01*
X568912Y1576980D01*
X574005Y1573279D01*
X579615Y1570421D01*
X585603Y1568475D01*
X591822Y1567490D01*
X598118D01*
X604337Y1568475D01*
X610325Y1570421D01*
X615935Y1573279D01*
X621028Y1576980D01*
X625480Y1581432D01*
X629181Y1586525D01*
X632039Y1592135D01*
X633985Y1598123D01*
X634970Y1604342D01*
Y1610638D01*
X633985Y1616857D01*
X632039Y1622845D01*
X629181Y1628454D01*
X625480Y1633548D01*
X621028Y1638000D01*
X615935Y1641701D01*
X610325Y1644559D01*
X604337Y1646505D01*
X598118Y1647490D01*
D02*
G37*
G36*
X334390Y1632492D02*
X325966D01*
X317595Y1631548D01*
X309383Y1629674D01*
X301432Y1626892D01*
X293842Y1623237D01*
X286709Y1618755D01*
X280123Y1613503D01*
X274167Y1607546D01*
X268915Y1600960D01*
X264433Y1593828D01*
X260778Y1586238D01*
X257996Y1578287D01*
X256121Y1570074D01*
X255178Y1561703D01*
Y1553280D01*
X256121Y1544909D01*
X257996Y1536696D01*
X260778Y1528745D01*
X264433Y1521156D01*
X268915Y1514023D01*
X274167Y1507437D01*
X280123Y1501480D01*
X286709Y1496228D01*
X293842Y1491746D01*
X301432Y1488091D01*
X309383Y1485309D01*
X317595Y1483435D01*
X325966Y1482492D01*
X334390D01*
X342761Y1483435D01*
X350973Y1485309D01*
X358924Y1488091D01*
X366514Y1491746D01*
X373647Y1496228D01*
X380233Y1501480D01*
X386189Y1507437D01*
X391441Y1514023D01*
X395923Y1521156D01*
X399578Y1528745D01*
X402360Y1536696D01*
X404235Y1544909D01*
X405178Y1553280D01*
Y1561703D01*
X404235Y1570074D01*
X402360Y1578287D01*
X399578Y1586238D01*
X395923Y1593828D01*
X391441Y1600960D01*
X386189Y1607546D01*
X380233Y1613503D01*
X373647Y1618755D01*
X366514Y1623237D01*
X358924Y1626892D01*
X350973Y1629674D01*
X342761Y1631548D01*
X334390Y1632492D01*
D02*
G37*
G36*
X1724009Y1393328D02*
X1718815D01*
X1713684Y1392515D01*
X1708744Y1390910D01*
X1704116Y1388552D01*
X1699914Y1385499D01*
X1696241Y1381826D01*
X1693188Y1377623D01*
X1690829Y1372995D01*
X1689224Y1368055D01*
X1688412Y1362925D01*
Y1357731D01*
X1689224Y1352600D01*
X1690829Y1347660D01*
X1693188Y1343032D01*
X1696241Y1338830D01*
X1699914Y1335157D01*
X1704116Y1332104D01*
X1708744Y1329745D01*
X1713684Y1328140D01*
X1718815Y1327328D01*
X1724009D01*
X1729139Y1328140D01*
X1734079Y1329745D01*
X1738707Y1332104D01*
X1742910Y1335157D01*
X1746583Y1338830D01*
X1749636Y1343032D01*
X1751994Y1347660D01*
X1753599Y1352600D01*
X1754412Y1357731D01*
Y1362925D01*
X1753599Y1368055D01*
X1751994Y1372995D01*
X1749636Y1377623D01*
X1746583Y1381826D01*
X1742910Y1385499D01*
X1738707Y1388552D01*
X1734079Y1390910D01*
X1729139Y1392515D01*
X1724009Y1393328D01*
D02*
G37*
G36*
X1076366D02*
X1071172D01*
X1066041Y1392515D01*
X1061101Y1390910D01*
X1056473Y1388552D01*
X1052271Y1385499D01*
X1048598Y1381826D01*
X1045545Y1377623D01*
X1043187Y1372995D01*
X1041581Y1368055D01*
X1040769Y1362925D01*
Y1357731D01*
X1041581Y1352600D01*
X1043187Y1347660D01*
X1045545Y1343032D01*
X1048598Y1338830D01*
X1052271Y1335157D01*
X1056473Y1332104D01*
X1061101Y1329745D01*
X1066041Y1328140D01*
X1071172Y1327328D01*
X1076366D01*
X1081497Y1328140D01*
X1086436Y1329745D01*
X1091065Y1332104D01*
X1095267Y1335157D01*
X1098940Y1338830D01*
X1101993Y1343032D01*
X1104351Y1347660D01*
X1105956Y1352600D01*
X1106769Y1357731D01*
Y1362925D01*
X1105956Y1368055D01*
X1104351Y1372995D01*
X1101993Y1377623D01*
X1098940Y1381826D01*
X1095267Y1385499D01*
X1091065Y1388552D01*
X1086436Y1390910D01*
X1081497Y1392515D01*
X1076366Y1393328D01*
D02*
G37*
G36*
X2041453Y1402222D02*
X2035157D01*
X2028939Y1401237D01*
X2022951Y1399292D01*
X2017341Y1396433D01*
X2012247Y1392733D01*
X2007795Y1388280D01*
X2004094Y1383187D01*
X2001236Y1377577D01*
X1999290Y1371589D01*
X1998305Y1365370D01*
Y1359074D01*
X1999290Y1352856D01*
X2001236Y1346868D01*
X2004094Y1341258D01*
X2007795Y1336164D01*
X2012247Y1331712D01*
X2017341Y1328011D01*
X2022951Y1325153D01*
X2028939Y1323207D01*
X2035157Y1322222D01*
X2041453D01*
X2047672Y1323207D01*
X2053660Y1325153D01*
X2059270Y1328011D01*
X2064364Y1331712D01*
X2068816Y1336164D01*
X2072516Y1341258D01*
X2075375Y1346868D01*
X2077320Y1352856D01*
X2078305Y1359074D01*
Y1365370D01*
X2077320Y1371589D01*
X2075375Y1377577D01*
X2072516Y1383187D01*
X2068816Y1388280D01*
X2064364Y1392733D01*
X2059270Y1396433D01*
X2053660Y1399292D01*
X2047672Y1401237D01*
X2041453Y1402222D01*
D02*
G37*
G36*
X1451211D02*
X1444915D01*
X1438696Y1401237D01*
X1432708Y1399292D01*
X1427098Y1396433D01*
X1422005Y1392733D01*
X1417553Y1388280D01*
X1413852Y1383187D01*
X1410993Y1377577D01*
X1409048Y1371589D01*
X1408063Y1365370D01*
Y1359074D01*
X1409048Y1352856D01*
X1410993Y1346868D01*
X1413852Y1341258D01*
X1417553Y1336164D01*
X1422005Y1331712D01*
X1427098Y1328011D01*
X1432708Y1325153D01*
X1438696Y1323207D01*
X1444915Y1322222D01*
X1451211D01*
X1457430Y1323207D01*
X1463418Y1325153D01*
X1469028Y1328011D01*
X1474121Y1331712D01*
X1478573Y1336164D01*
X1482274Y1341258D01*
X1485132Y1346868D01*
X1487078Y1352856D01*
X1488063Y1359074D01*
Y1365370D01*
X1487078Y1371589D01*
X1485132Y1377577D01*
X1482274Y1383187D01*
X1478573Y1388280D01*
X1474121Y1392733D01*
X1469028Y1396433D01*
X1463418Y1399292D01*
X1457430Y1401237D01*
X1451211Y1402222D01*
D02*
G37*
G36*
X862922D02*
X856626D01*
X850407Y1401237D01*
X844419Y1399292D01*
X838809Y1396433D01*
X833716Y1392733D01*
X829264Y1388280D01*
X825563Y1383187D01*
X822704Y1377577D01*
X820759Y1371589D01*
X819774Y1365370D01*
Y1359074D01*
X820759Y1352856D01*
X822704Y1346868D01*
X825563Y1341258D01*
X829264Y1336164D01*
X833716Y1331712D01*
X838809Y1328011D01*
X844419Y1325153D01*
X850407Y1323207D01*
X856626Y1322222D01*
X862922D01*
X869141Y1323207D01*
X875129Y1325153D01*
X880739Y1328011D01*
X885832Y1331712D01*
X890284Y1336164D01*
X893985Y1341258D01*
X896843Y1346868D01*
X898789Y1352856D01*
X899774Y1359074D01*
Y1365370D01*
X898789Y1371589D01*
X896843Y1377577D01*
X893985Y1383187D01*
X890284Y1388280D01*
X885832Y1392733D01*
X880739Y1396433D01*
X875129Y1399292D01*
X869141Y1401237D01*
X862922Y1402222D01*
D02*
G37*
G36*
X333326D02*
X327030D01*
X320811Y1401237D01*
X314823Y1399292D01*
X309213Y1396433D01*
X304120Y1392733D01*
X299668Y1388280D01*
X295967Y1383187D01*
X293109Y1377577D01*
X291163Y1371589D01*
X290178Y1365370D01*
Y1359074D01*
X291163Y1352856D01*
X293109Y1346868D01*
X295967Y1341258D01*
X299668Y1336164D01*
X304120Y1331712D01*
X309213Y1328011D01*
X314823Y1325153D01*
X320811Y1323207D01*
X327030Y1322222D01*
X333326D01*
X339545Y1323207D01*
X345533Y1325153D01*
X351143Y1328011D01*
X356236Y1331712D01*
X360688Y1336164D01*
X364389Y1341258D01*
X367247Y1346868D01*
X369193Y1352856D01*
X370178Y1359074D01*
Y1365370D01*
X369193Y1371589D01*
X367247Y1377577D01*
X364389Y1383187D01*
X360688Y1388280D01*
X356236Y1392733D01*
X351143Y1396433D01*
X345533Y1399292D01*
X339545Y1401237D01*
X333326Y1402222D01*
D02*
G37*
G36*
X1797212Y1330695D02*
X1792269Y1330306D01*
X1787448Y1329149D01*
X1782867Y1327251D01*
X1778639Y1324661D01*
X1774869Y1321440D01*
X1772847Y1319073D01*
X1771577D01*
X1769554Y1321440D01*
X1765784Y1324661D01*
X1761557Y1327251D01*
X1756976Y1329149D01*
X1752155Y1330306D01*
X1747212Y1330695D01*
X1742269Y1330306D01*
X1737448Y1329149D01*
X1732867Y1327251D01*
X1728639Y1324661D01*
X1724869Y1321440D01*
X1721649Y1317670D01*
X1719058Y1313443D01*
X1717161Y1308862D01*
X1716003Y1304041D01*
X1715614Y1299098D01*
Y1297098D01*
X1716003Y1292155D01*
X1717161Y1287334D01*
X1719058Y1282753D01*
X1721649Y1278525D01*
X1724869Y1274755D01*
X1728639Y1271535D01*
X1732867Y1268944D01*
X1737448Y1267047D01*
X1742269Y1265889D01*
X1747212Y1265500D01*
X1752155Y1265889D01*
X1756976Y1267047D01*
X1761557Y1268944D01*
X1765784Y1271535D01*
X1769554Y1274755D01*
X1771577Y1277123D01*
X1772847D01*
X1774869Y1274755D01*
X1778639Y1271535D01*
X1782867Y1268944D01*
X1787448Y1267047D01*
X1792269Y1265889D01*
X1797212Y1265500D01*
X1802155Y1265889D01*
X1806976Y1267047D01*
X1811557Y1268944D01*
X1815784Y1271535D01*
X1819554Y1274755D01*
X1822775Y1278525D01*
X1825365Y1282753D01*
X1827263Y1287334D01*
X1828420Y1292155D01*
X1828809Y1297098D01*
Y1299098D01*
X1828420Y1304041D01*
X1827263Y1308862D01*
X1825365Y1313443D01*
X1822775Y1317670D01*
X1819554Y1321440D01*
X1815784Y1324661D01*
X1811557Y1327251D01*
X1806976Y1329149D01*
X1802155Y1330306D01*
X1797212Y1330695D01*
D02*
G37*
G36*
X1149569D02*
X1144626Y1330306D01*
X1139805Y1329149D01*
X1135224Y1327251D01*
X1130996Y1324661D01*
X1127226Y1321440D01*
X1125204Y1319073D01*
X1123934D01*
X1121912Y1321440D01*
X1118141Y1324661D01*
X1113914Y1327251D01*
X1109333Y1329149D01*
X1104512Y1330306D01*
X1099569Y1330695D01*
X1094626Y1330306D01*
X1089805Y1329149D01*
X1085224Y1327251D01*
X1080996Y1324661D01*
X1077226Y1321440D01*
X1074006Y1317670D01*
X1071415Y1313443D01*
X1069518Y1308862D01*
X1068361Y1304041D01*
X1067971Y1299098D01*
Y1297098D01*
X1068361Y1292155D01*
X1069518Y1287334D01*
X1071415Y1282753D01*
X1074006Y1278525D01*
X1077226Y1274755D01*
X1080996Y1271535D01*
X1085224Y1268944D01*
X1089805Y1267047D01*
X1094626Y1265889D01*
X1099569Y1265500D01*
X1104512Y1265889D01*
X1109333Y1267047D01*
X1113914Y1268944D01*
X1118141Y1271535D01*
X1121912Y1274755D01*
X1123934Y1277123D01*
X1125204D01*
X1127226Y1274755D01*
X1130996Y1271535D01*
X1135224Y1268944D01*
X1139805Y1267047D01*
X1144626Y1265889D01*
X1149569Y1265500D01*
X1154512Y1265889D01*
X1159333Y1267047D01*
X1163914Y1268944D01*
X1168141Y1271535D01*
X1171912Y1274755D01*
X1175132Y1278525D01*
X1177722Y1282753D01*
X1179620Y1287334D01*
X1180777Y1292155D01*
X1181166Y1297098D01*
Y1299098D01*
X1180777Y1304041D01*
X1179620Y1308862D01*
X1177722Y1313443D01*
X1175132Y1317670D01*
X1171912Y1321440D01*
X1168141Y1324661D01*
X1163914Y1327251D01*
X1159333Y1329149D01*
X1154512Y1330306D01*
X1149569Y1330695D01*
D02*
G37*
G36*
X599182Y1387224D02*
X590758D01*
X582387Y1386281D01*
X574175Y1384406D01*
X566223Y1381624D01*
X558634Y1377969D01*
X551501Y1373487D01*
X544915Y1368235D01*
X538959Y1362279D01*
X533707Y1355693D01*
X529225Y1348560D01*
X525570Y1340970D01*
X522788Y1333019D01*
X520913Y1324807D01*
X519970Y1316436D01*
Y1308012D01*
X520913Y1299641D01*
X522788Y1291429D01*
X525570Y1283477D01*
X529225Y1275888D01*
X533707Y1268755D01*
X538959Y1262169D01*
X544915Y1256213D01*
X551501Y1250960D01*
X558634Y1246479D01*
X566223Y1242824D01*
X574175Y1240042D01*
X582387Y1238167D01*
X590758Y1237224D01*
X599182D01*
X607553Y1238167D01*
X615765Y1240042D01*
X623717Y1242824D01*
X631306Y1246479D01*
X638439Y1250960D01*
X645025Y1256213D01*
X650981Y1262169D01*
X656234Y1268755D01*
X660715Y1275888D01*
X664370Y1283477D01*
X667152Y1291429D01*
X669027Y1299641D01*
X669970Y1308012D01*
Y1316436D01*
X669027Y1324807D01*
X667152Y1333019D01*
X664370Y1340970D01*
X660715Y1348560D01*
X656234Y1355693D01*
X650981Y1362279D01*
X645025Y1368235D01*
X638439Y1373487D01*
X631306Y1377969D01*
X623717Y1381624D01*
X615765Y1384406D01*
X607553Y1386281D01*
X599182Y1387224D01*
D02*
G37*
G36*
X2308602Y1387224D02*
X2300178D01*
X2291807Y1386281D01*
X2283595Y1384406D01*
X2275643Y1381624D01*
X2268054Y1377969D01*
X2260921Y1373487D01*
X2254335Y1368235D01*
X2248379Y1362279D01*
X2243127Y1355693D01*
X2238645Y1348560D01*
X2234990Y1340970D01*
X2232208Y1333019D01*
X2230333Y1324807D01*
X2229390Y1316436D01*
Y1308012D01*
X2230333Y1299641D01*
X2232208Y1291429D01*
X2234990Y1283477D01*
X2238645Y1275888D01*
X2243127Y1268755D01*
X2248379Y1262169D01*
X2254335Y1256212D01*
X2260921Y1250960D01*
X2268054Y1246479D01*
X2275643Y1242824D01*
X2283595Y1240042D01*
X2291807Y1238167D01*
X2300178Y1237224D01*
X2308602D01*
X2316973Y1238167D01*
X2325185Y1240042D01*
X2333136Y1242824D01*
X2340726Y1246479D01*
X2347859Y1250960D01*
X2354445Y1256212D01*
X2360401Y1262169D01*
X2365654Y1268755D01*
X2370135Y1275888D01*
X2373790Y1283477D01*
X2376572Y1291429D01*
X2378447Y1299641D01*
X2379390Y1308012D01*
Y1316436D01*
X2378447Y1324807D01*
X2376572Y1333019D01*
X2373790Y1340970D01*
X2370135Y1348560D01*
X2365654Y1355693D01*
X2360401Y1362279D01*
X2354445Y1368235D01*
X2347859Y1373487D01*
X2340726Y1377969D01*
X2333136Y1381624D01*
X2325185Y1384406D01*
X2316973Y1386281D01*
X2308602Y1387224D01*
D02*
G37*
G36*
X1990094Y1148060D02*
X1984899D01*
X1979769Y1147247D01*
X1974829Y1145642D01*
X1970201Y1143284D01*
X1965998Y1140231D01*
X1962325Y1136558D01*
X1959272Y1132356D01*
X1956914Y1127728D01*
X1955309Y1122787D01*
X1954496Y1117657D01*
Y1112463D01*
X1955309Y1107333D01*
X1956914Y1102392D01*
X1959272Y1097764D01*
X1962325Y1093562D01*
X1965998Y1089889D01*
X1970201Y1086836D01*
X1974829Y1084478D01*
X1979769Y1082873D01*
X1984899Y1082060D01*
X1990094D01*
X1995224Y1082873D01*
X2000164Y1084478D01*
X2004792Y1086836D01*
X2008994Y1089889D01*
X2012667Y1093562D01*
X2015721Y1097764D01*
X2018079Y1102392D01*
X2019684Y1107333D01*
X2020496Y1112463D01*
Y1117657D01*
X2019684Y1122787D01*
X2018079Y1127728D01*
X2015721Y1132356D01*
X2012667Y1136558D01*
X2008994Y1140231D01*
X2004792Y1143284D01*
X2000164Y1145642D01*
X1995224Y1147247D01*
X1990094Y1148060D01*
D02*
G37*
G36*
X811562D02*
X806368D01*
X801237Y1147247D01*
X796297Y1145642D01*
X791669Y1143284D01*
X787467Y1140231D01*
X783794Y1136558D01*
X780741Y1132356D01*
X778383Y1127728D01*
X776778Y1122787D01*
X775965Y1117657D01*
Y1112463D01*
X776778Y1107333D01*
X778383Y1102392D01*
X780741Y1097764D01*
X783794Y1093562D01*
X787467Y1089889D01*
X791669Y1086836D01*
X796297Y1084478D01*
X801237Y1082873D01*
X806368Y1082060D01*
X811562D01*
X816693Y1082873D01*
X821633Y1084478D01*
X826261Y1086836D01*
X830463Y1089889D01*
X834136Y1093562D01*
X837189Y1097764D01*
X839547Y1102392D01*
X841152Y1107333D01*
X841965Y1112463D01*
Y1117657D01*
X841152Y1122787D01*
X839547Y1127728D01*
X837189Y1132356D01*
X834136Y1136558D01*
X830463Y1140231D01*
X826261Y1143284D01*
X821633Y1145642D01*
X816693Y1147247D01*
X811562Y1148060D01*
D02*
G37*
G36*
X2063296Y1085427D02*
X2058353Y1085038D01*
X2053532Y1083881D01*
X2048951Y1081983D01*
X2044724Y1079393D01*
X2040954Y1076173D01*
X2038931Y1073805D01*
X2037661D01*
X2035639Y1076173D01*
X2031869Y1079393D01*
X2027641Y1081983D01*
X2023060Y1083881D01*
X2018239Y1085038D01*
X2013296Y1085427D01*
X2008353Y1085038D01*
X2003532Y1083881D01*
X1998951Y1081983D01*
X1994724Y1079393D01*
X1990954Y1076173D01*
X1987733Y1072402D01*
X1985143Y1068175D01*
X1983245Y1063594D01*
X1982088Y1058773D01*
X1981699Y1053830D01*
Y1051830D01*
X1982088Y1046887D01*
X1983245Y1042066D01*
X1985143Y1037485D01*
X1987733Y1033258D01*
X1990954Y1029487D01*
X1994724Y1026267D01*
X1998951Y1023677D01*
X2003532Y1021779D01*
X2008353Y1020622D01*
X2013296Y1020233D01*
X2018239Y1020622D01*
X2023060Y1021779D01*
X2027641Y1023677D01*
X2031869Y1026267D01*
X2035639Y1029487D01*
X2037661Y1031855D01*
X2038931D01*
X2040954Y1029487D01*
X2044724Y1026267D01*
X2048951Y1023677D01*
X2053532Y1021779D01*
X2058353Y1020622D01*
X2063296Y1020233D01*
X2068239Y1020622D01*
X2073060Y1021779D01*
X2077641Y1023677D01*
X2081869Y1026267D01*
X2085639Y1029487D01*
X2088859Y1033258D01*
X2091450Y1037485D01*
X2093347Y1042066D01*
X2094505Y1046887D01*
X2094894Y1051830D01*
Y1053830D01*
X2094505Y1058773D01*
X2093347Y1063594D01*
X2091450Y1068175D01*
X2088859Y1072402D01*
X2085639Y1076173D01*
X2081869Y1079393D01*
X2077641Y1081983D01*
X2073060Y1083881D01*
X2068239Y1085038D01*
X2063296Y1085427D01*
D02*
G37*
G36*
X884765D02*
X879822Y1085038D01*
X875001Y1083881D01*
X870420Y1081983D01*
X866192Y1079393D01*
X862422Y1076173D01*
X860400Y1073805D01*
X859130D01*
X857108Y1076173D01*
X853337Y1079393D01*
X849110Y1081983D01*
X844529Y1083881D01*
X839708Y1085038D01*
X834765Y1085427D01*
X829822Y1085038D01*
X825001Y1083881D01*
X820420Y1081983D01*
X816192Y1079393D01*
X812422Y1076173D01*
X809202Y1072402D01*
X806611Y1068175D01*
X804714Y1063594D01*
X803557Y1058773D01*
X803168Y1053830D01*
Y1051830D01*
X803557Y1046887D01*
X804714Y1042066D01*
X806611Y1037485D01*
X809202Y1033258D01*
X812422Y1029487D01*
X816192Y1026267D01*
X820420Y1023677D01*
X825001Y1021779D01*
X829822Y1020622D01*
X834765Y1020233D01*
X839708Y1020622D01*
X844529Y1021779D01*
X849110Y1023677D01*
X853337Y1026267D01*
X857108Y1029487D01*
X859130Y1031855D01*
X860400D01*
X862422Y1029487D01*
X866192Y1026267D01*
X870420Y1023677D01*
X875001Y1021779D01*
X879822Y1020622D01*
X884765Y1020233D01*
X889708Y1020622D01*
X894529Y1021779D01*
X899110Y1023677D01*
X903337Y1026267D01*
X907108Y1029487D01*
X910328Y1033258D01*
X912918Y1037485D01*
X914816Y1042066D01*
X915973Y1046887D01*
X916362Y1051830D01*
Y1053830D01*
X915973Y1058773D01*
X914816Y1063594D01*
X912918Y1068175D01*
X910328Y1072402D01*
X907108Y1076173D01*
X903337Y1079393D01*
X899110Y1081983D01*
X894529Y1083881D01*
X889708Y1085038D01*
X884765Y1085427D01*
D02*
G37*
G36*
X334390Y1141956D02*
X325966D01*
X317595Y1141013D01*
X309383Y1139138D01*
X301432Y1136356D01*
X293842Y1132701D01*
X286709Y1128220D01*
X280123Y1122968D01*
X274167Y1117011D01*
X268915Y1110425D01*
X264433Y1103292D01*
X260778Y1095703D01*
X257996Y1087751D01*
X256121Y1079539D01*
X255178Y1071168D01*
Y1062744D01*
X256121Y1054373D01*
X257996Y1046161D01*
X260778Y1038210D01*
X264433Y1030620D01*
X268915Y1023487D01*
X274167Y1016901D01*
X280123Y1010945D01*
X286709Y1005693D01*
X293842Y1001211D01*
X301432Y997556D01*
X309383Y994774D01*
X317595Y992899D01*
X325966Y991956D01*
X334390D01*
X342761Y992899D01*
X350973Y994774D01*
X358924Y997556D01*
X366514Y1001211D01*
X373647Y1005693D01*
X380233Y1010945D01*
X386189Y1016901D01*
X391441Y1023487D01*
X395923Y1030620D01*
X399578Y1038210D01*
X402360Y1046161D01*
X404235Y1054373D01*
X405178Y1062744D01*
Y1071168D01*
X404235Y1079539D01*
X402360Y1087751D01*
X399578Y1095703D01*
X395923Y1103292D01*
X391441Y1110425D01*
X386189Y1117011D01*
X380233Y1122968D01*
X373647Y1128220D01*
X366514Y1132701D01*
X358924Y1136356D01*
X350973Y1139138D01*
X342761Y1141013D01*
X334390Y1141956D01*
D02*
G37*
G36*
X2307538Y1056954D02*
X2301242D01*
X2295023Y1055970D01*
X2289035Y1054024D01*
X2283425Y1051166D01*
X2278332Y1047465D01*
X2273880Y1043013D01*
X2270179Y1037919D01*
X2267321Y1032309D01*
X2265375Y1026321D01*
X2264390Y1020103D01*
Y1013806D01*
X2265375Y1007588D01*
X2267321Y1001600D01*
X2270179Y995990D01*
X2273880Y990896D01*
X2278332Y986444D01*
X2283425Y982743D01*
X2289035Y979885D01*
X2295023Y977939D01*
X2301242Y976954D01*
X2307538D01*
X2313757Y977939D01*
X2319745Y979885D01*
X2325355Y982743D01*
X2330448Y986444D01*
X2334900Y990896D01*
X2338601Y995990D01*
X2341460Y1001600D01*
X2343405Y1007588D01*
X2344390Y1013806D01*
Y1020103D01*
X2343405Y1026321D01*
X2341460Y1032309D01*
X2338601Y1037919D01*
X2334900Y1043013D01*
X2330448Y1047465D01*
X2325355Y1051166D01*
X2319745Y1054024D01*
X2313757Y1055970D01*
X2307538Y1056954D01*
D02*
G37*
G36*
X1775369D02*
X1769073D01*
X1762854Y1055970D01*
X1756866Y1054024D01*
X1751256Y1051166D01*
X1746162Y1047465D01*
X1741710Y1043013D01*
X1738009Y1037919D01*
X1735151Y1032309D01*
X1733206Y1026321D01*
X1732221Y1020103D01*
Y1013806D01*
X1733206Y1007588D01*
X1735151Y1001600D01*
X1738009Y995990D01*
X1741710Y990896D01*
X1746162Y986444D01*
X1751256Y982743D01*
X1756866Y979885D01*
X1762854Y977939D01*
X1769073Y976954D01*
X1775369D01*
X1781587Y977939D01*
X1787575Y979885D01*
X1793185Y982743D01*
X1798279Y986444D01*
X1802731Y990896D01*
X1806432Y995990D01*
X1809290Y1001600D01*
X1811236Y1007588D01*
X1812221Y1013806D01*
Y1020103D01*
X1811236Y1026321D01*
X1809290Y1032309D01*
X1806432Y1037919D01*
X1802731Y1043013D01*
X1798279Y1047465D01*
X1793185Y1051166D01*
X1787575Y1054024D01*
X1781587Y1055970D01*
X1775369Y1056954D01*
D02*
G37*
G36*
X1127726D02*
X1121430D01*
X1115211Y1055970D01*
X1109223Y1054024D01*
X1103613Y1051166D01*
X1098520Y1047465D01*
X1094068Y1043013D01*
X1090367Y1037919D01*
X1087508Y1032309D01*
X1085563Y1026321D01*
X1084578Y1020103D01*
Y1013806D01*
X1085563Y1007588D01*
X1087508Y1001600D01*
X1090367Y995990D01*
X1094068Y990896D01*
X1098520Y986444D01*
X1103613Y982743D01*
X1109223Y979885D01*
X1115211Y977939D01*
X1121430Y976954D01*
X1127726D01*
X1133945Y977939D01*
X1139933Y979885D01*
X1145543Y982743D01*
X1150636Y986444D01*
X1155088Y990896D01*
X1158789Y995990D01*
X1161647Y1001600D01*
X1163593Y1007588D01*
X1164578Y1013806D01*
Y1020103D01*
X1163593Y1026321D01*
X1161647Y1032309D01*
X1158789Y1037919D01*
X1155088Y1043013D01*
X1150636Y1047465D01*
X1145543Y1051166D01*
X1139933Y1054024D01*
X1133945Y1055970D01*
X1127726Y1056954D01*
D02*
G37*
G36*
X598118D02*
X591822D01*
X585603Y1055970D01*
X579615Y1054024D01*
X574005Y1051166D01*
X568912Y1047465D01*
X564460Y1043013D01*
X560759Y1037919D01*
X557901Y1032309D01*
X555955Y1026321D01*
X554970Y1020103D01*
Y1013806D01*
X555955Y1007588D01*
X557901Y1001600D01*
X560759Y995990D01*
X564460Y990896D01*
X568912Y986444D01*
X574005Y982743D01*
X579615Y979885D01*
X585603Y977939D01*
X591822Y976954D01*
X598118D01*
X604337Y977939D01*
X610325Y979885D01*
X615935Y982743D01*
X621028Y986444D01*
X625480Y990896D01*
X629181Y995990D01*
X632039Y1001600D01*
X633985Y1007588D01*
X634970Y1013806D01*
Y1020103D01*
X633985Y1026321D01*
X632039Y1032309D01*
X629181Y1037919D01*
X625480Y1043013D01*
X621028Y1047465D01*
X615935Y1051166D01*
X610325Y1054024D01*
X604337Y1055970D01*
X598118Y1056954D01*
D02*
G37*
G36*
X599182Y896688D02*
X590758D01*
X582387Y895745D01*
X574175Y893871D01*
X566223Y891089D01*
X558634Y887434D01*
X551501Y882952D01*
X544915Y877700D01*
X538959Y871743D01*
X533707Y865157D01*
X529225Y858025D01*
X525570Y850435D01*
X522788Y842484D01*
X520913Y834271D01*
X519970Y825900D01*
Y817477D01*
X520913Y809106D01*
X522788Y800893D01*
X525570Y792942D01*
X529225Y785352D01*
X533707Y778220D01*
X538959Y771634D01*
X544915Y765677D01*
X551501Y760425D01*
X558634Y755943D01*
X566223Y752288D01*
X574175Y749506D01*
X582387Y747632D01*
X590758Y746688D01*
X599182D01*
X607553Y747632D01*
X615765Y749506D01*
X623717Y752288D01*
X631306Y755943D01*
X638439Y760425D01*
X645025Y765677D01*
X650981Y771634D01*
X656234Y778220D01*
X660715Y785352D01*
X664370Y792942D01*
X667152Y800893D01*
X669027Y809106D01*
X669970Y817477D01*
Y825900D01*
X669027Y834271D01*
X667152Y842484D01*
X664370Y850435D01*
X660715Y858025D01*
X656234Y865157D01*
X650981Y871743D01*
X645025Y877700D01*
X638439Y882952D01*
X631306Y887434D01*
X623717Y891089D01*
X615765Y893871D01*
X607553Y895745D01*
X599182Y896688D01*
D02*
G37*
G36*
X2308602Y896685D02*
X2300178D01*
X2291807Y895742D01*
X2283595Y893867D01*
X2275643Y891085D01*
X2268054Y887430D01*
X2260921Y882949D01*
X2254335Y877696D01*
X2248379Y871740D01*
X2243127Y865154D01*
X2238645Y858021D01*
X2234990Y850432D01*
X2232208Y842480D01*
X2230333Y834268D01*
X2229390Y825897D01*
Y817473D01*
X2230333Y809102D01*
X2232208Y800890D01*
X2234990Y792939D01*
X2238645Y785349D01*
X2243127Y778216D01*
X2248379Y771630D01*
X2254335Y765674D01*
X2260921Y760422D01*
X2268054Y755940D01*
X2275643Y752285D01*
X2283595Y749503D01*
X2291807Y747628D01*
X2300178Y746685D01*
X2308602D01*
X2316973Y747628D01*
X2325185Y749503D01*
X2333136Y752285D01*
X2340726Y755940D01*
X2347859Y760422D01*
X2354445Y765674D01*
X2360401Y771630D01*
X2365654Y778216D01*
X2370135Y785349D01*
X2373790Y792939D01*
X2376572Y800890D01*
X2378447Y809102D01*
X2379390Y817473D01*
Y825897D01*
X2378447Y834268D01*
X2376572Y842480D01*
X2373790Y850432D01*
X2370135Y858021D01*
X2365654Y865154D01*
X2360401Y871740D01*
X2354445Y877696D01*
X2347859Y882949D01*
X2340726Y887430D01*
X2333136Y891085D01*
X2325185Y893867D01*
X2316973Y895742D01*
X2308602Y896685D01*
D02*
G37*
G36*
X2041453Y811687D02*
X2035157D01*
X2028939Y810702D01*
X2022951Y808756D01*
X2017341Y805898D01*
X2012247Y802197D01*
X2007795Y797745D01*
X2004094Y792651D01*
X2001236Y787041D01*
X1999290Y781053D01*
X1998305Y774835D01*
Y768539D01*
X1999290Y762320D01*
X2001236Y756332D01*
X2004094Y750722D01*
X2007795Y745629D01*
X2012247Y741176D01*
X2017341Y737476D01*
X2022951Y734617D01*
X2028939Y732672D01*
X2035157Y731687D01*
X2041453D01*
X2047672Y732672D01*
X2053660Y734617D01*
X2059270Y737476D01*
X2064364Y741176D01*
X2068816Y745629D01*
X2072516Y750722D01*
X2075375Y756332D01*
X2077320Y762320D01*
X2078305Y768539D01*
Y774835D01*
X2077320Y781053D01*
X2075375Y787041D01*
X2072516Y792651D01*
X2068816Y797745D01*
X2064364Y802197D01*
X2059270Y805898D01*
X2053660Y808756D01*
X2047672Y810702D01*
X2041453Y811687D01*
D02*
G37*
G36*
X1451211D02*
X1444915D01*
X1438696Y810702D01*
X1432708Y808756D01*
X1427098Y805898D01*
X1422005Y802197D01*
X1417553Y797745D01*
X1413852Y792651D01*
X1410993Y787041D01*
X1409048Y781053D01*
X1408063Y774835D01*
Y768539D01*
X1409048Y762320D01*
X1410993Y756332D01*
X1413852Y750722D01*
X1417553Y745629D01*
X1422005Y741176D01*
X1427098Y737476D01*
X1432708Y734617D01*
X1438696Y732672D01*
X1444915Y731687D01*
X1451211D01*
X1457430Y732672D01*
X1463418Y734617D01*
X1469028Y737476D01*
X1474121Y741176D01*
X1478573Y745629D01*
X1482274Y750722D01*
X1485132Y756332D01*
X1487078Y762320D01*
X1488063Y768539D01*
Y774835D01*
X1487078Y781053D01*
X1485132Y787041D01*
X1482274Y792651D01*
X1478573Y797745D01*
X1474121Y802197D01*
X1469028Y805898D01*
X1463418Y808756D01*
X1457430Y810702D01*
X1451211Y811687D01*
D02*
G37*
G36*
X862922D02*
X856626D01*
X850407Y810702D01*
X844419Y808756D01*
X838809Y805898D01*
X833716Y802197D01*
X829264Y797745D01*
X825563Y792651D01*
X822704Y787041D01*
X820759Y781053D01*
X819774Y774835D01*
Y768539D01*
X820759Y762320D01*
X822704Y756332D01*
X825563Y750722D01*
X829264Y745629D01*
X833716Y741176D01*
X838809Y737476D01*
X844419Y734617D01*
X850407Y732672D01*
X856626Y731687D01*
X862922D01*
X869141Y732672D01*
X875129Y734617D01*
X880739Y737476D01*
X885832Y741176D01*
X890284Y745629D01*
X893985Y750722D01*
X896843Y756332D01*
X898789Y762320D01*
X899774Y768539D01*
Y774835D01*
X898789Y781053D01*
X896843Y787041D01*
X893985Y792651D01*
X890284Y797745D01*
X885832Y802197D01*
X880739Y805898D01*
X875129Y808756D01*
X869141Y810702D01*
X862922Y811687D01*
D02*
G37*
G36*
X333326D02*
X327030D01*
X320811Y810702D01*
X314823Y808756D01*
X309213Y805898D01*
X304120Y802197D01*
X299668Y797745D01*
X295967Y792651D01*
X293109Y787041D01*
X291163Y781053D01*
X290178Y774835D01*
Y768539D01*
X291163Y762320D01*
X293109Y756332D01*
X295967Y750722D01*
X299668Y745629D01*
X304120Y741176D01*
X309213Y737476D01*
X314823Y734617D01*
X320811Y732672D01*
X327030Y731687D01*
X333326D01*
X339545Y732672D01*
X345533Y734617D01*
X351143Y737476D01*
X356236Y741176D01*
X360688Y745629D01*
X364389Y750722D01*
X367247Y756332D01*
X369193Y762320D01*
X370178Y768539D01*
Y774835D01*
X369193Y781053D01*
X367247Y787041D01*
X364389Y792651D01*
X360688Y797745D01*
X356236Y802197D01*
X351143Y805898D01*
X345533Y808756D01*
X339545Y810702D01*
X333326Y811687D01*
D02*
G37*
G36*
X1156643Y774770D02*
X1150897D01*
X1145223Y773871D01*
X1139759Y772096D01*
X1134640Y769488D01*
X1129992Y766111D01*
X1125929Y762048D01*
X1122552Y757400D01*
X1119944Y752281D01*
X1118169Y746817D01*
X1117270Y741143D01*
Y735397D01*
X1118169Y729723D01*
X1119944Y724259D01*
X1122552Y719140D01*
X1125929Y714492D01*
X1129992Y710429D01*
X1134640Y707052D01*
X1139759Y704444D01*
X1145223Y702669D01*
X1150897Y701770D01*
X1156643D01*
X1162317Y702669D01*
X1167781Y704444D01*
X1172900Y707052D01*
X1177548Y710429D01*
X1181611Y714492D01*
X1184988Y719140D01*
X1187596Y724259D01*
X1189371Y729723D01*
X1190270Y735397D01*
Y741143D01*
X1189371Y746817D01*
X1187596Y752281D01*
X1184988Y757400D01*
X1181611Y762048D01*
X1177548Y766111D01*
X1172900Y769488D01*
X1167781Y772096D01*
X1162317Y773871D01*
X1156643Y774770D01*
D02*
G37*
G36*
X1747193Y770960D02*
X1741447D01*
X1735773Y770061D01*
X1730309Y768286D01*
X1725190Y765678D01*
X1720542Y762301D01*
X1716479Y758238D01*
X1713102Y753590D01*
X1710494Y748471D01*
X1708719Y743007D01*
X1707820Y737333D01*
Y731587D01*
X1708719Y725913D01*
X1710494Y720449D01*
X1713102Y715330D01*
X1716479Y710682D01*
X1720542Y706619D01*
X1725190Y703242D01*
X1730309Y700634D01*
X1735773Y698859D01*
X1741447Y697960D01*
X1747193D01*
X1752867Y698859D01*
X1758331Y700634D01*
X1763450Y703242D01*
X1768098Y706619D01*
X1772161Y710682D01*
X1775538Y715330D01*
X1778146Y720449D01*
X1779921Y725913D01*
X1780820Y731587D01*
Y737333D01*
X1779921Y743007D01*
X1778146Y748471D01*
X1775538Y753590D01*
X1772161Y758238D01*
X1768098Y762301D01*
X1763450Y765678D01*
X1758331Y768286D01*
X1752867Y770061D01*
X1747193Y770960D01*
D02*
G37*
%LPD*%
D19*
X1373730Y1070320D02*
D03*
X1523730D02*
D03*
X594970Y1312224D02*
D03*
Y821688D02*
D03*
X330178Y1066956D02*
D03*
Y1557492D02*
D03*
X2304390Y821685D02*
D03*
Y1312224D02*
D03*
D20*
X1175369Y1360328D02*
D03*
X1073769D02*
D03*
X2089096Y1115060D02*
D03*
X1987496D02*
D03*
X1823012Y1360328D02*
D03*
X1721412D02*
D03*
X910565Y1115060D02*
D03*
X808965D02*
D03*
D21*
X1099569Y1298098D02*
D03*
X1149569D02*
D03*
X1747212D02*
D03*
X1797212D02*
D03*
X834765Y1052830D02*
D03*
X884765D02*
D03*
X2013296D02*
D03*
X2063296D02*
D03*
D22*
X330178Y1362222D02*
D03*
Y1262222D02*
D03*
Y871687D02*
D03*
Y771687D02*
D03*
X2038305Y1362222D02*
D03*
Y1262222D02*
D03*
X1448063Y1362222D02*
D03*
Y1262222D02*
D03*
X594970Y1607490D02*
D03*
Y1507490D02*
D03*
X1772221Y1116954D02*
D03*
Y1016954D02*
D03*
Y1607490D02*
D03*
Y1507490D02*
D03*
X2038305Y871687D02*
D03*
Y771687D02*
D03*
X2304390Y1607493D02*
D03*
Y1507493D02*
D03*
Y1116954D02*
D03*
Y1016954D02*
D03*
X859774Y1362222D02*
D03*
Y1262222D02*
D03*
X1124578Y1607490D02*
D03*
Y1507490D02*
D03*
X1448063Y871687D02*
D03*
Y771687D02*
D03*
X859774Y871687D02*
D03*
Y771687D02*
D03*
X1124578Y1116954D02*
D03*
Y1016954D02*
D03*
X594970Y1116954D02*
D03*
Y1016954D02*
D03*
D23*
X1744320Y784460D02*
D03*
Y734460D02*
D03*
X1153770Y788270D02*
D03*
Y738270D02*
D03*
X859767Y1636630D02*
D03*
Y1586630D02*
D03*
X2038280Y1636630D02*
D03*
Y1586630D02*
D03*
M02*
