M48
;Layer_Color=9474304
;FILE_FORMAT=4:4
METRIC,LZ
;TYPE=PLATED
T1F00S00C0.8000
T2F00S00C0.9000
T3F00S00C1.0000
T4F00S00C1.7000
T5F00S00C5.2500
T6F00S00C6.0000
%
T01
X00808965Y0111506
X00910565
X01987496
X02089096
X01823012Y01360328
X01721412
X01175369
X01073769
T02
X00834765Y0105283
X00884765
X02013296
X02063296
X01797212Y01298098
X01747212
X01149569
X01099569
T03
X0174432Y0073446
Y0078446
X0115377Y0078827
Y0073827
X0203828Y0158663
X00859767
Y0163663
X0203828
T04
X02038305Y00771687
X01448063
X00859774
X00330178
Y00871687
X0059497Y01016954
Y01116954
X00859774Y00871687
X01124578Y01016954
Y01116954
X01448063Y00871687
X01772221Y01016954
Y01116954
X02038305Y00871687
X0230439Y01016954
Y01116954
Y01507493
X02038305Y01362222
Y01262222
X01772221Y0150749
X01448063Y01362222
Y01262222
X01124578Y0150749
X00859774Y01362222
Y01262222
X0059497Y0150749
X00330178Y01362222
Y01262222
X0059497Y0160749
X01124578
X01772221
X0230439Y01607493
T05
X0137373Y0107032
X0152373
T06
X00330178Y01066956
X0059497Y00821688
X0230439Y00821685
Y01312224
X0059497Y01312224
X00330178Y01557492
M30
