G04*
G04 #@! TF.GenerationSoftware,Altium Limited,Altium Designer,22.8.2 (66)*
G04*
G04 Layer_Physical_Order=1*
G04 Layer_Color=255*
%FSLAX44Y44*%
%MOMM*%
G71*
G04*
G04 #@! TF.SameCoordinates,9A62F31F-D48D-475B-933D-7D02DB87FC69*
G04*
G04*
G04 #@! TF.FilePolarity,Positive*
G04*
G01*
G75*
%ADD18C,2.0000*%
%ADD19C,10.0000*%
%ADD20C,1.6000*%
%ADD21O,1.3000X1.5000*%
%ADD22C,3.0000*%
%ADD23C,2.3000*%
G36*
X2478362Y647718D02*
X157498D01*
X157498Y1730992D01*
X2478362Y1730992D01*
X2478362Y647718D01*
D02*
G37*
%LPC*%
G36*
X2041153Y1623130D02*
X2035408D01*
X2029733Y1622231D01*
X2024269Y1620456D01*
X2019150Y1617848D01*
X2014502Y1614471D01*
X2010439Y1610408D01*
X2007063Y1605760D01*
X2004454Y1600641D01*
X2002679Y1595177D01*
X2001780Y1589503D01*
Y1583757D01*
X2002679Y1578083D01*
X2004454Y1572619D01*
X2007063Y1567500D01*
X2010439Y1562852D01*
X2014502Y1558789D01*
X2019150Y1555412D01*
X2024269Y1552804D01*
X2029733Y1551029D01*
X2035408Y1550130D01*
X2041153D01*
X2046827Y1551029D01*
X2052291Y1552804D01*
X2057410Y1555412D01*
X2062058Y1558789D01*
X2066121Y1562852D01*
X2069498Y1567500D01*
X2072106Y1572619D01*
X2073881Y1578083D01*
X2074780Y1583757D01*
Y1589503D01*
X2073881Y1595177D01*
X2072106Y1600641D01*
X2069498Y1605760D01*
X2066121Y1610408D01*
X2062058Y1614471D01*
X2057410Y1617848D01*
X2052291Y1620456D01*
X2046827Y1622231D01*
X2041153Y1623130D01*
D02*
G37*
G36*
X862639D02*
X856894D01*
X851219Y1622231D01*
X845755Y1620456D01*
X840636Y1617848D01*
X835988Y1614471D01*
X831926Y1610408D01*
X828549Y1605760D01*
X825941Y1600641D01*
X824165Y1595177D01*
X823267Y1589503D01*
Y1583757D01*
X824165Y1578083D01*
X825941Y1572619D01*
X828549Y1567500D01*
X831926Y1562852D01*
X835988Y1558789D01*
X840636Y1555412D01*
X845755Y1552804D01*
X851219Y1551029D01*
X856894Y1550130D01*
X862639D01*
X868314Y1551029D01*
X873778Y1552804D01*
X878897Y1555412D01*
X883545Y1558789D01*
X887607Y1562852D01*
X890984Y1567500D01*
X893593Y1572619D01*
X895368Y1578083D01*
X896267Y1583757D01*
Y1589503D01*
X895368Y1595177D01*
X893593Y1600641D01*
X890984Y1605760D01*
X887607Y1610408D01*
X883545Y1614471D01*
X878897Y1617848D01*
X873778Y1620456D01*
X868314Y1622231D01*
X862639Y1623130D01*
D02*
G37*
G36*
X334390Y1632492D02*
X325966D01*
X317595Y1631548D01*
X309383Y1629674D01*
X301432Y1626892D01*
X293842Y1623237D01*
X286709Y1618755D01*
X280123Y1613503D01*
X274167Y1607546D01*
X268915Y1600960D01*
X264433Y1593828D01*
X260778Y1586238D01*
X257996Y1578287D01*
X256121Y1570074D01*
X255178Y1561703D01*
Y1553280D01*
X256121Y1544909D01*
X257996Y1536696D01*
X260778Y1528745D01*
X264433Y1521156D01*
X268915Y1514023D01*
X274167Y1507437D01*
X280123Y1501480D01*
X286709Y1496228D01*
X293842Y1491746D01*
X301432Y1488091D01*
X309383Y1485309D01*
X317595Y1483435D01*
X325966Y1482492D01*
X334390D01*
X342761Y1483435D01*
X350973Y1485309D01*
X358924Y1488091D01*
X366514Y1491746D01*
X373647Y1496228D01*
X380233Y1501480D01*
X386189Y1507437D01*
X391441Y1514023D01*
X395923Y1521156D01*
X399578Y1528745D01*
X402360Y1536696D01*
X404235Y1544909D01*
X405178Y1553280D01*
Y1561703D01*
X404235Y1570074D01*
X402360Y1578287D01*
X399578Y1586238D01*
X395923Y1593828D01*
X391441Y1600960D01*
X386189Y1607546D01*
X380233Y1613503D01*
X373647Y1618755D01*
X366514Y1623237D01*
X358924Y1626892D01*
X350973Y1629674D01*
X342761Y1631548D01*
X334390Y1632492D01*
D02*
G37*
G36*
X2307538Y1547493D02*
X2301242D01*
X2295023Y1546508D01*
X2289035Y1544563D01*
X2283425Y1541704D01*
X2278332Y1538004D01*
X2273880Y1533551D01*
X2270179Y1528458D01*
X2267321Y1522848D01*
X2265375Y1516860D01*
X2264390Y1510641D01*
Y1504345D01*
X2265375Y1498127D01*
X2267321Y1492139D01*
X2270179Y1486529D01*
X2273880Y1481435D01*
X2278332Y1476983D01*
X2283425Y1473282D01*
X2289035Y1470424D01*
X2295023Y1468478D01*
X2301242Y1467493D01*
X2307538D01*
X2313757Y1468478D01*
X2319745Y1470424D01*
X2325355Y1473282D01*
X2330448Y1476983D01*
X2334900Y1481435D01*
X2338601Y1486529D01*
X2341460Y1492139D01*
X2343405Y1498127D01*
X2344390Y1504345D01*
Y1510641D01*
X2343405Y1516860D01*
X2341460Y1522848D01*
X2338601Y1528458D01*
X2334900Y1533551D01*
X2330448Y1538004D01*
X2325355Y1541704D01*
X2319745Y1544563D01*
X2313757Y1546508D01*
X2307538Y1547493D01*
D02*
G37*
G36*
X1775369Y1547490D02*
X1769073D01*
X1762854Y1546505D01*
X1756866Y1544559D01*
X1751256Y1541701D01*
X1746162Y1538000D01*
X1741710Y1533548D01*
X1738009Y1528454D01*
X1735151Y1522845D01*
X1733206Y1516857D01*
X1732221Y1510638D01*
Y1504342D01*
X1733206Y1498123D01*
X1735151Y1492135D01*
X1738009Y1486525D01*
X1741710Y1481432D01*
X1746162Y1476980D01*
X1751256Y1473279D01*
X1756866Y1470421D01*
X1762854Y1468475D01*
X1769073Y1467490D01*
X1775369D01*
X1781587Y1468475D01*
X1787575Y1470421D01*
X1793185Y1473279D01*
X1798279Y1476980D01*
X1802731Y1481432D01*
X1806432Y1486525D01*
X1809290Y1492135D01*
X1811236Y1498123D01*
X1812221Y1504342D01*
Y1510638D01*
X1811236Y1516857D01*
X1809290Y1522845D01*
X1806432Y1528454D01*
X1802731Y1533548D01*
X1798279Y1538000D01*
X1793185Y1541701D01*
X1787575Y1544559D01*
X1781587Y1546505D01*
X1775369Y1547490D01*
D02*
G37*
G36*
X1127726D02*
X1121430D01*
X1115211Y1546505D01*
X1109223Y1544559D01*
X1103613Y1541701D01*
X1098520Y1538000D01*
X1094068Y1533548D01*
X1090367Y1528454D01*
X1087508Y1522845D01*
X1085563Y1516857D01*
X1084578Y1510638D01*
Y1504342D01*
X1085563Y1498123D01*
X1087508Y1492135D01*
X1090367Y1486525D01*
X1094068Y1481432D01*
X1098520Y1476980D01*
X1103613Y1473279D01*
X1109223Y1470421D01*
X1115211Y1468475D01*
X1121430Y1467490D01*
X1127726D01*
X1133945Y1468475D01*
X1139933Y1470421D01*
X1145543Y1473279D01*
X1150636Y1476980D01*
X1155088Y1481432D01*
X1158789Y1486525D01*
X1161647Y1492135D01*
X1163593Y1498123D01*
X1164578Y1504342D01*
Y1510638D01*
X1163593Y1516857D01*
X1161647Y1522845D01*
X1158789Y1528454D01*
X1155088Y1533548D01*
X1150636Y1538000D01*
X1145543Y1541701D01*
X1139933Y1544559D01*
X1133945Y1546505D01*
X1127726Y1547490D01*
D02*
G37*
G36*
X598118D02*
X591822D01*
X585603Y1546505D01*
X579615Y1544559D01*
X574005Y1541701D01*
X568912Y1538000D01*
X564460Y1533548D01*
X560759Y1528454D01*
X557901Y1522845D01*
X555955Y1516857D01*
X554970Y1510638D01*
Y1504342D01*
X555955Y1498123D01*
X557901Y1492135D01*
X560759Y1486525D01*
X564460Y1481432D01*
X568912Y1476980D01*
X574005Y1473279D01*
X579615Y1470421D01*
X585603Y1468475D01*
X591822Y1467490D01*
X598118D01*
X604337Y1468475D01*
X610325Y1470421D01*
X615935Y1473279D01*
X621028Y1476980D01*
X625480Y1481432D01*
X629181Y1486525D01*
X632039Y1492135D01*
X633985Y1498123D01*
X634970Y1504342D01*
Y1510638D01*
X633985Y1516857D01*
X632039Y1522845D01*
X629181Y1528454D01*
X625480Y1533548D01*
X621028Y1538000D01*
X615935Y1541701D01*
X610325Y1544559D01*
X604337Y1546505D01*
X598118Y1547490D01*
D02*
G37*
G36*
X1825609Y1393328D02*
X1820414D01*
X1815284Y1392515D01*
X1810344Y1390910D01*
X1805716Y1388552D01*
X1801514Y1385499D01*
X1797841Y1381826D01*
X1794787Y1377623D01*
X1792429Y1372995D01*
X1790824Y1368055D01*
X1790012Y1362925D01*
Y1357731D01*
X1790824Y1352600D01*
X1792429Y1347660D01*
X1794787Y1343032D01*
X1797841Y1338830D01*
X1801514Y1335157D01*
X1805716Y1332104D01*
X1810344Y1329745D01*
X1815284Y1328140D01*
X1820414Y1327328D01*
X1825609D01*
X1830739Y1328140D01*
X1835679Y1329745D01*
X1840307Y1332104D01*
X1844510Y1335157D01*
X1848183Y1338830D01*
X1851236Y1343032D01*
X1853594Y1347660D01*
X1855199Y1352600D01*
X1856012Y1357731D01*
Y1362925D01*
X1855199Y1368055D01*
X1853594Y1372995D01*
X1851236Y1377623D01*
X1848183Y1381826D01*
X1844510Y1385499D01*
X1840307Y1388552D01*
X1835679Y1390910D01*
X1830739Y1392515D01*
X1825609Y1393328D01*
D02*
G37*
G36*
X1177966D02*
X1172772D01*
X1167641Y1392515D01*
X1162701Y1390910D01*
X1158073Y1388552D01*
X1153871Y1385499D01*
X1150198Y1381826D01*
X1147145Y1377623D01*
X1144787Y1372995D01*
X1143182Y1368055D01*
X1142369Y1362925D01*
Y1357731D01*
X1143182Y1352600D01*
X1144787Y1347660D01*
X1147145Y1343032D01*
X1150198Y1338830D01*
X1153871Y1335157D01*
X1158073Y1332104D01*
X1162701Y1329745D01*
X1167641Y1328140D01*
X1172772Y1327328D01*
X1177966D01*
X1183096Y1328140D01*
X1188036Y1329745D01*
X1192665Y1332104D01*
X1196867Y1335157D01*
X1200540Y1338830D01*
X1203593Y1343032D01*
X1205951Y1347660D01*
X1207556Y1352600D01*
X1208369Y1357731D01*
Y1362925D01*
X1207556Y1368055D01*
X1205951Y1372995D01*
X1203593Y1377623D01*
X1200540Y1381826D01*
X1196867Y1385499D01*
X1192665Y1388552D01*
X1188036Y1390910D01*
X1183096Y1392515D01*
X1177966Y1393328D01*
D02*
G37*
G36*
X1721412Y1395436D02*
X1715919Y1395004D01*
X1710563Y1393718D01*
X1705473Y1391609D01*
X1700775Y1388731D01*
X1696586Y1385153D01*
X1693009Y1380964D01*
X1690130Y1376266D01*
X1688022Y1371177D01*
X1686736Y1365820D01*
X1686303Y1360328D01*
Y1323898D01*
X1686736Y1318406D01*
X1688022Y1313049D01*
X1690130Y1307959D01*
X1693009Y1303262D01*
X1696586Y1299073D01*
X1722386Y1273272D01*
X1726575Y1269695D01*
X1731273Y1266816D01*
X1736363Y1264708D01*
X1741720Y1263422D01*
X1747212Y1262990D01*
X1752704Y1263422D01*
X1758061Y1264708D01*
X1763150Y1266816D01*
X1767848Y1269695D01*
X1772037Y1273272D01*
X1775615Y1277462D01*
X1778493Y1282159D01*
X1780602Y1287249D01*
X1781888Y1292606D01*
X1782320Y1298098D01*
X1781888Y1303590D01*
X1780602Y1308947D01*
X1778493Y1314037D01*
X1775615Y1318734D01*
X1772037Y1322923D01*
X1756520Y1338440D01*
Y1360328D01*
X1756088Y1365820D01*
X1754802Y1371177D01*
X1752693Y1376266D01*
X1749815Y1380964D01*
X1746237Y1385153D01*
X1742048Y1388731D01*
X1737350Y1391609D01*
X1732261Y1393718D01*
X1726904Y1395004D01*
X1721412Y1395436D01*
D02*
G37*
G36*
X1073769D02*
X1068277Y1395004D01*
X1062920Y1393718D01*
X1057830Y1391609D01*
X1053133Y1388731D01*
X1048944Y1385153D01*
X1045366Y1380964D01*
X1042487Y1376266D01*
X1040379Y1371177D01*
X1039093Y1365820D01*
X1038661Y1360328D01*
Y1323898D01*
X1039093Y1318406D01*
X1040379Y1313049D01*
X1042487Y1307959D01*
X1045366Y1303262D01*
X1048944Y1299073D01*
X1074744Y1273272D01*
X1078933Y1269695D01*
X1083630Y1266816D01*
X1088720Y1264708D01*
X1094077Y1263422D01*
X1099569Y1262990D01*
X1105061Y1263422D01*
X1110418Y1264708D01*
X1115508Y1266816D01*
X1120205Y1269695D01*
X1124394Y1273272D01*
X1127972Y1277462D01*
X1130851Y1282159D01*
X1132959Y1287249D01*
X1134245Y1292606D01*
X1134677Y1298098D01*
X1134245Y1303590D01*
X1132959Y1308947D01*
X1130851Y1314037D01*
X1127972Y1318734D01*
X1124394Y1322923D01*
X1108877Y1338440D01*
Y1360328D01*
X1108445Y1365820D01*
X1107159Y1371177D01*
X1105051Y1376266D01*
X1102172Y1380964D01*
X1098594Y1385153D01*
X1094405Y1388731D01*
X1089708Y1391609D01*
X1084618Y1393718D01*
X1079261Y1395004D01*
X1073769Y1395436D01*
D02*
G37*
G36*
X599182Y1387224D02*
X590758D01*
X582387Y1386281D01*
X574175Y1384406D01*
X566223Y1381624D01*
X558634Y1377969D01*
X551501Y1373487D01*
X544915Y1368235D01*
X538959Y1362279D01*
X533707Y1355693D01*
X529225Y1348560D01*
X525570Y1340970D01*
X522788Y1333019D01*
X520913Y1324807D01*
X519970Y1316436D01*
Y1308012D01*
X520913Y1299641D01*
X522788Y1291429D01*
X525570Y1283477D01*
X529225Y1275888D01*
X533707Y1268755D01*
X538959Y1262169D01*
X544915Y1256213D01*
X551501Y1250960D01*
X558634Y1246479D01*
X566223Y1242824D01*
X574175Y1240042D01*
X582387Y1238167D01*
X590758Y1237224D01*
X599182D01*
X607553Y1238167D01*
X615765Y1240042D01*
X623717Y1242824D01*
X631306Y1246479D01*
X638439Y1250960D01*
X645025Y1256213D01*
X650981Y1262169D01*
X656234Y1268755D01*
X660715Y1275888D01*
X664370Y1283477D01*
X667152Y1291429D01*
X669027Y1299641D01*
X669970Y1308012D01*
Y1316436D01*
X669027Y1324807D01*
X667152Y1333019D01*
X664370Y1340970D01*
X660715Y1348560D01*
X656234Y1355693D01*
X650981Y1362279D01*
X645025Y1368235D01*
X638439Y1373487D01*
X631306Y1377969D01*
X623717Y1381624D01*
X615765Y1384406D01*
X607553Y1386281D01*
X599182Y1387224D01*
D02*
G37*
G36*
X2308602Y1387224D02*
X2300178D01*
X2291807Y1386281D01*
X2283595Y1384406D01*
X2275643Y1381624D01*
X2268054Y1377969D01*
X2260921Y1373487D01*
X2254335Y1368235D01*
X2248379Y1362279D01*
X2243127Y1355693D01*
X2238645Y1348560D01*
X2234990Y1340970D01*
X2232208Y1333019D01*
X2230333Y1324807D01*
X2229390Y1316436D01*
Y1308012D01*
X2230333Y1299641D01*
X2232208Y1291429D01*
X2234990Y1283477D01*
X2238645Y1275888D01*
X2243127Y1268755D01*
X2248379Y1262169D01*
X2254335Y1256212D01*
X2260921Y1250960D01*
X2268054Y1246479D01*
X2275643Y1242824D01*
X2283595Y1240042D01*
X2291807Y1238167D01*
X2300178Y1237224D01*
X2308602D01*
X2316973Y1238167D01*
X2325185Y1240042D01*
X2333136Y1242824D01*
X2340726Y1246479D01*
X2347859Y1250960D01*
X2354445Y1256212D01*
X2360401Y1262169D01*
X2365654Y1268755D01*
X2370135Y1275888D01*
X2373790Y1283477D01*
X2376572Y1291429D01*
X2378447Y1299641D01*
X2379390Y1308012D01*
Y1316436D01*
X2378447Y1324807D01*
X2376572Y1333019D01*
X2373790Y1340970D01*
X2370135Y1348560D01*
X2365654Y1355693D01*
X2360401Y1362279D01*
X2354445Y1368235D01*
X2347859Y1373487D01*
X2340726Y1377969D01*
X2333136Y1381624D01*
X2325185Y1384406D01*
X2316973Y1386281D01*
X2308602Y1387224D01*
D02*
G37*
G36*
X2041453Y1302222D02*
X2035157D01*
X2028939Y1301237D01*
X2022951Y1299292D01*
X2017341Y1296433D01*
X2012247Y1292733D01*
X2007795Y1288280D01*
X2004094Y1283187D01*
X2001236Y1277577D01*
X1999290Y1271589D01*
X1998305Y1265370D01*
Y1259074D01*
X1999290Y1252856D01*
X2001236Y1246868D01*
X2004094Y1241258D01*
X2007795Y1236164D01*
X2012247Y1231712D01*
X2017341Y1228011D01*
X2022951Y1225153D01*
X2028939Y1223207D01*
X2035157Y1222222D01*
X2041453D01*
X2047672Y1223207D01*
X2053660Y1225153D01*
X2059270Y1228011D01*
X2064364Y1231712D01*
X2068816Y1236164D01*
X2072516Y1241258D01*
X2075375Y1246868D01*
X2077320Y1252856D01*
X2078305Y1259074D01*
Y1265370D01*
X2077320Y1271589D01*
X2075375Y1277577D01*
X2072516Y1283187D01*
X2068816Y1288280D01*
X2064364Y1292733D01*
X2059270Y1296433D01*
X2053660Y1299292D01*
X2047672Y1301237D01*
X2041453Y1302222D01*
D02*
G37*
G36*
X1451211D02*
X1444915D01*
X1438696Y1301237D01*
X1432708Y1299292D01*
X1427098Y1296433D01*
X1422005Y1292733D01*
X1417553Y1288280D01*
X1413852Y1283187D01*
X1410993Y1277577D01*
X1409048Y1271589D01*
X1408063Y1265370D01*
Y1259074D01*
X1409048Y1252856D01*
X1410993Y1246868D01*
X1413852Y1241258D01*
X1417553Y1236164D01*
X1422005Y1231712D01*
X1427098Y1228011D01*
X1432708Y1225153D01*
X1438696Y1223207D01*
X1444915Y1222222D01*
X1451211D01*
X1457430Y1223207D01*
X1463418Y1225153D01*
X1469028Y1228011D01*
X1474121Y1231712D01*
X1478573Y1236164D01*
X1482274Y1241258D01*
X1485132Y1246868D01*
X1487078Y1252856D01*
X1488063Y1259074D01*
Y1265370D01*
X1487078Y1271589D01*
X1485132Y1277577D01*
X1482274Y1283187D01*
X1478573Y1288280D01*
X1474121Y1292733D01*
X1469028Y1296433D01*
X1463418Y1299292D01*
X1457430Y1301237D01*
X1451211Y1302222D01*
D02*
G37*
G36*
X862922D02*
X856626D01*
X850407Y1301237D01*
X844419Y1299292D01*
X838809Y1296433D01*
X833716Y1292733D01*
X829264Y1288280D01*
X825563Y1283187D01*
X822704Y1277577D01*
X820759Y1271589D01*
X819774Y1265370D01*
Y1259074D01*
X820759Y1252856D01*
X822704Y1246868D01*
X825563Y1241258D01*
X829264Y1236164D01*
X833716Y1231712D01*
X838809Y1228011D01*
X844419Y1225153D01*
X850407Y1223207D01*
X856626Y1222222D01*
X862922D01*
X869141Y1223207D01*
X875129Y1225153D01*
X880739Y1228011D01*
X885832Y1231712D01*
X890284Y1236164D01*
X893985Y1241258D01*
X896843Y1246868D01*
X898789Y1252856D01*
X899774Y1259074D01*
Y1265370D01*
X898789Y1271589D01*
X896843Y1277577D01*
X893985Y1283187D01*
X890284Y1288280D01*
X885832Y1292733D01*
X880739Y1296433D01*
X875129Y1299292D01*
X869141Y1301237D01*
X862922Y1302222D01*
D02*
G37*
G36*
X333326D02*
X327030D01*
X320811Y1301237D01*
X314823Y1299292D01*
X309213Y1296433D01*
X304120Y1292733D01*
X299668Y1288280D01*
X295967Y1283187D01*
X293109Y1277577D01*
X291163Y1271589D01*
X290178Y1265370D01*
Y1259074D01*
X291163Y1252856D01*
X293109Y1246868D01*
X295967Y1241258D01*
X299668Y1236164D01*
X304120Y1231712D01*
X309213Y1228011D01*
X314823Y1225153D01*
X320811Y1223207D01*
X327030Y1222222D01*
X333326D01*
X339545Y1223207D01*
X345533Y1225153D01*
X351143Y1228011D01*
X356236Y1231712D01*
X360688Y1236164D01*
X364389Y1241258D01*
X367247Y1246868D01*
X369193Y1252856D01*
X370178Y1259074D01*
Y1265370D01*
X369193Y1271589D01*
X367247Y1277577D01*
X364389Y1283187D01*
X360688Y1288280D01*
X356236Y1292733D01*
X351143Y1296433D01*
X345533Y1299292D01*
X339545Y1301237D01*
X333326Y1302222D01*
D02*
G37*
G36*
X2091694Y1148060D02*
X2086499D01*
X2081369Y1147247D01*
X2076429Y1145642D01*
X2071801Y1143284D01*
X2067598Y1140231D01*
X2063925Y1136558D01*
X2060872Y1132356D01*
X2058514Y1127728D01*
X2056909Y1122787D01*
X2056096Y1117657D01*
Y1112463D01*
X2056909Y1107333D01*
X2058514Y1102392D01*
X2060872Y1097764D01*
X2063925Y1093562D01*
X2067598Y1089889D01*
X2071801Y1086836D01*
X2076429Y1084478D01*
X2081369Y1082873D01*
X2086499Y1082060D01*
X2091694D01*
X2096824Y1082873D01*
X2101764Y1084478D01*
X2106392Y1086836D01*
X2110594Y1089889D01*
X2114267Y1093562D01*
X2117321Y1097764D01*
X2119679Y1102392D01*
X2121284Y1107333D01*
X2122096Y1112463D01*
Y1117657D01*
X2121284Y1122787D01*
X2119679Y1127728D01*
X2117321Y1132356D01*
X2114267Y1136558D01*
X2110594Y1140231D01*
X2106392Y1143284D01*
X2101764Y1145642D01*
X2096824Y1147247D01*
X2091694Y1148060D01*
D02*
G37*
G36*
X913162D02*
X907968D01*
X902838Y1147247D01*
X897897Y1145642D01*
X893269Y1143284D01*
X889067Y1140231D01*
X885394Y1136558D01*
X882341Y1132356D01*
X879983Y1127728D01*
X878378Y1122787D01*
X877565Y1117657D01*
Y1112463D01*
X878378Y1107333D01*
X879983Y1102392D01*
X882341Y1097764D01*
X885394Y1093562D01*
X889067Y1089889D01*
X893269Y1086836D01*
X897897Y1084478D01*
X902838Y1082873D01*
X907968Y1082060D01*
X913162D01*
X918292Y1082873D01*
X923233Y1084478D01*
X927861Y1086836D01*
X932063Y1089889D01*
X935736Y1093562D01*
X938789Y1097764D01*
X941147Y1102392D01*
X942752Y1107333D01*
X943565Y1112463D01*
Y1117657D01*
X942752Y1122787D01*
X941147Y1127728D01*
X938789Y1132356D01*
X935736Y1136558D01*
X932063Y1140231D01*
X927861Y1143284D01*
X923233Y1145642D01*
X918292Y1147247D01*
X913162Y1148060D01*
D02*
G37*
G36*
X1527942Y1145320D02*
X1519518D01*
X1511147Y1144377D01*
X1502935Y1142502D01*
X1494984Y1139720D01*
X1487394Y1136065D01*
X1480261Y1131583D01*
X1473675Y1126331D01*
X1467719Y1120375D01*
X1462466Y1113789D01*
X1457985Y1106656D01*
X1454330Y1099066D01*
X1451548Y1091115D01*
X1449673Y1082903D01*
X1449365Y1080168D01*
X1448095D01*
X1447787Y1082903D01*
X1445912Y1091115D01*
X1443130Y1099066D01*
X1439475Y1106656D01*
X1434993Y1113789D01*
X1429741Y1120375D01*
X1423785Y1126331D01*
X1417199Y1131583D01*
X1410066Y1136065D01*
X1402477Y1139720D01*
X1394525Y1142502D01*
X1386313Y1144377D01*
X1377942Y1145320D01*
X1369518D01*
X1361147Y1144377D01*
X1352935Y1142502D01*
X1344984Y1139720D01*
X1337394Y1136065D01*
X1330261Y1131583D01*
X1323675Y1126331D01*
X1317719Y1120375D01*
X1312467Y1113789D01*
X1307985Y1106656D01*
X1304330Y1099066D01*
X1301548Y1091115D01*
X1299673Y1082903D01*
X1298730Y1074532D01*
Y1066108D01*
X1299673Y1057737D01*
X1301548Y1049525D01*
X1304330Y1041573D01*
X1307985Y1033984D01*
X1312467Y1026851D01*
X1317719Y1020265D01*
X1323675Y1014309D01*
X1330261Y1009057D01*
X1337394Y1004575D01*
X1344984Y1000920D01*
X1352935Y998138D01*
X1361147Y996263D01*
X1369518Y995320D01*
X1377942D01*
X1386313Y996263D01*
X1394525Y998138D01*
X1402477Y1000920D01*
X1410066Y1004575D01*
X1417199Y1009057D01*
X1423785Y1014309D01*
X1429741Y1020265D01*
X1434993Y1026851D01*
X1439475Y1033984D01*
X1443130Y1041573D01*
X1445912Y1049525D01*
X1447787Y1057737D01*
X1448095Y1060472D01*
X1449365D01*
X1449673Y1057737D01*
X1451548Y1049525D01*
X1454330Y1041573D01*
X1457985Y1033984D01*
X1462466Y1026851D01*
X1467719Y1020265D01*
X1473675Y1014309D01*
X1480261Y1009057D01*
X1487394Y1004575D01*
X1494984Y1000920D01*
X1502935Y998138D01*
X1511147Y996263D01*
X1519518Y995320D01*
X1527942D01*
X1536313Y996263D01*
X1544525Y998138D01*
X1552477Y1000920D01*
X1560066Y1004575D01*
X1567199Y1009057D01*
X1573785Y1014309D01*
X1579741Y1020265D01*
X1584993Y1026851D01*
X1589475Y1033984D01*
X1593130Y1041573D01*
X1595912Y1049525D01*
X1597787Y1057737D01*
X1598730Y1066108D01*
Y1074532D01*
X1597787Y1082903D01*
X1595912Y1091115D01*
X1593130Y1099066D01*
X1589475Y1106656D01*
X1584993Y1113789D01*
X1579741Y1120375D01*
X1573785Y1126331D01*
X1567199Y1131583D01*
X1560066Y1136065D01*
X1552477Y1139720D01*
X1544525Y1142502D01*
X1536313Y1144377D01*
X1527942Y1145320D01*
D02*
G37*
G36*
X2307538Y1156954D02*
X2301242D01*
X2295023Y1155970D01*
X2289035Y1154024D01*
X2283425Y1151166D01*
X2278332Y1147465D01*
X2273880Y1143013D01*
X2270179Y1137919D01*
X2267321Y1132309D01*
X2265375Y1126321D01*
X2264390Y1120103D01*
Y1113806D01*
X2265375Y1107588D01*
X2267321Y1101600D01*
X2270179Y1095990D01*
X2273880Y1090896D01*
X2278332Y1086444D01*
X2283425Y1082743D01*
X2289035Y1079885D01*
X2295023Y1077939D01*
X2301242Y1076954D01*
X2307538D01*
X2313757Y1077939D01*
X2319745Y1079885D01*
X2325355Y1082743D01*
X2330448Y1086444D01*
X2334900Y1090896D01*
X2338601Y1095990D01*
X2341460Y1101600D01*
X2343405Y1107588D01*
X2344390Y1113806D01*
Y1120103D01*
X2343405Y1126321D01*
X2341460Y1132309D01*
X2338601Y1137919D01*
X2334900Y1143013D01*
X2330448Y1147465D01*
X2325355Y1151166D01*
X2319745Y1154024D01*
X2313757Y1155970D01*
X2307538Y1156954D01*
D02*
G37*
G36*
X1775369D02*
X1769073D01*
X1762854Y1155970D01*
X1756866Y1154024D01*
X1751256Y1151166D01*
X1746162Y1147465D01*
X1741710Y1143013D01*
X1738009Y1137919D01*
X1735151Y1132309D01*
X1733206Y1126321D01*
X1732221Y1120103D01*
Y1113806D01*
X1733206Y1107588D01*
X1735151Y1101600D01*
X1738009Y1095990D01*
X1741710Y1090896D01*
X1746162Y1086444D01*
X1751256Y1082743D01*
X1756866Y1079885D01*
X1762854Y1077939D01*
X1769073Y1076954D01*
X1775369D01*
X1781587Y1077939D01*
X1787575Y1079885D01*
X1793185Y1082743D01*
X1798279Y1086444D01*
X1802731Y1090896D01*
X1806432Y1095990D01*
X1809290Y1101600D01*
X1811236Y1107588D01*
X1812221Y1113806D01*
Y1120103D01*
X1811236Y1126321D01*
X1809290Y1132309D01*
X1806432Y1137919D01*
X1802731Y1143013D01*
X1798279Y1147465D01*
X1793185Y1151166D01*
X1787575Y1154024D01*
X1781587Y1155970D01*
X1775369Y1156954D01*
D02*
G37*
G36*
X1127726D02*
X1121430D01*
X1115211Y1155970D01*
X1109223Y1154024D01*
X1103613Y1151166D01*
X1098520Y1147465D01*
X1094068Y1143013D01*
X1090367Y1137919D01*
X1087508Y1132309D01*
X1085563Y1126321D01*
X1084578Y1120103D01*
Y1113806D01*
X1085563Y1107588D01*
X1087508Y1101600D01*
X1090367Y1095990D01*
X1094068Y1090896D01*
X1098520Y1086444D01*
X1103613Y1082743D01*
X1109223Y1079885D01*
X1115211Y1077939D01*
X1121430Y1076954D01*
X1127726D01*
X1133945Y1077939D01*
X1139933Y1079885D01*
X1145543Y1082743D01*
X1150636Y1086444D01*
X1155088Y1090896D01*
X1158789Y1095990D01*
X1161647Y1101600D01*
X1163593Y1107588D01*
X1164578Y1113806D01*
Y1120103D01*
X1163593Y1126321D01*
X1161647Y1132309D01*
X1158789Y1137919D01*
X1155088Y1143013D01*
X1150636Y1147465D01*
X1145543Y1151166D01*
X1139933Y1154024D01*
X1133945Y1155970D01*
X1127726Y1156954D01*
D02*
G37*
G36*
X598118D02*
X591822D01*
X585603Y1155970D01*
X579615Y1154024D01*
X574005Y1151166D01*
X568912Y1147465D01*
X564460Y1143013D01*
X560759Y1137919D01*
X557901Y1132309D01*
X555955Y1126321D01*
X554970Y1120103D01*
Y1113806D01*
X555955Y1107588D01*
X557901Y1101600D01*
X560759Y1095990D01*
X564460Y1090896D01*
X568912Y1086444D01*
X574005Y1082743D01*
X579615Y1079885D01*
X585603Y1077939D01*
X591822Y1076954D01*
X598118D01*
X604337Y1077939D01*
X610325Y1079885D01*
X615935Y1082743D01*
X621028Y1086444D01*
X625480Y1090896D01*
X629181Y1095990D01*
X632039Y1101600D01*
X633985Y1107588D01*
X634970Y1113806D01*
Y1120103D01*
X633985Y1126321D01*
X632039Y1132309D01*
X629181Y1137919D01*
X625480Y1143013D01*
X621028Y1147465D01*
X615935Y1151166D01*
X610325Y1154024D01*
X604337Y1155970D01*
X598118Y1156954D01*
D02*
G37*
G36*
X1987496Y1150168D02*
X1982004Y1149736D01*
X1976647Y1148450D01*
X1971558Y1146342D01*
X1966860Y1143463D01*
X1962671Y1139885D01*
X1959093Y1135696D01*
X1956215Y1130999D01*
X1954106Y1125909D01*
X1952820Y1120552D01*
X1952388Y1115060D01*
Y1078630D01*
X1952820Y1073138D01*
X1954106Y1067781D01*
X1956215Y1062691D01*
X1959093Y1057994D01*
X1962671Y1053805D01*
X1988471Y1028005D01*
X1992660Y1024427D01*
X1997357Y1021548D01*
X2002447Y1019440D01*
X2007804Y1018154D01*
X2013296Y1017722D01*
X2018788Y1018154D01*
X2024145Y1019440D01*
X2029235Y1021548D01*
X2033932Y1024427D01*
X2038122Y1028005D01*
X2041700Y1032194D01*
X2044578Y1036891D01*
X2046686Y1041981D01*
X2047972Y1047338D01*
X2048405Y1052830D01*
X2047972Y1058322D01*
X2046686Y1063679D01*
X2044578Y1068769D01*
X2041700Y1073466D01*
X2038122Y1077655D01*
X2022605Y1093172D01*
Y1115060D01*
X2022172Y1120552D01*
X2020886Y1125909D01*
X2018778Y1130999D01*
X2015900Y1135696D01*
X2012322Y1139885D01*
X2008132Y1143463D01*
X2003435Y1146342D01*
X1998345Y1148450D01*
X1992988Y1149736D01*
X1987496Y1150168D01*
D02*
G37*
G36*
X808965D02*
X803473Y1149736D01*
X798116Y1148450D01*
X793026Y1146342D01*
X788329Y1143463D01*
X784140Y1139885D01*
X780562Y1135696D01*
X777683Y1130999D01*
X775575Y1125909D01*
X774289Y1120552D01*
X773857Y1115060D01*
Y1078630D01*
X774289Y1073138D01*
X775575Y1067781D01*
X777683Y1062691D01*
X780562Y1057994D01*
X784140Y1053805D01*
X809940Y1028005D01*
X814129Y1024427D01*
X818826Y1021548D01*
X823916Y1019440D01*
X829273Y1018154D01*
X834765Y1017722D01*
X840257Y1018154D01*
X845614Y1019440D01*
X850704Y1021548D01*
X855401Y1024427D01*
X859590Y1028005D01*
X863168Y1032194D01*
X866047Y1036891D01*
X868155Y1041981D01*
X869441Y1047338D01*
X869873Y1052830D01*
X869441Y1058322D01*
X868155Y1063679D01*
X866047Y1068769D01*
X863168Y1073466D01*
X859590Y1077655D01*
X844073Y1093172D01*
Y1115060D01*
X843641Y1120552D01*
X842355Y1125909D01*
X840247Y1130999D01*
X837368Y1135696D01*
X833790Y1139885D01*
X829601Y1143463D01*
X824904Y1146342D01*
X819814Y1148450D01*
X814457Y1149736D01*
X808965Y1150168D01*
D02*
G37*
G36*
X334390Y1141956D02*
X325966D01*
X317595Y1141013D01*
X309383Y1139138D01*
X301432Y1136356D01*
X293842Y1132701D01*
X286709Y1128220D01*
X280123Y1122968D01*
X274167Y1117011D01*
X268915Y1110425D01*
X264433Y1103292D01*
X260778Y1095703D01*
X257996Y1087751D01*
X256121Y1079539D01*
X255178Y1071168D01*
Y1062744D01*
X256121Y1054373D01*
X257996Y1046161D01*
X260778Y1038210D01*
X264433Y1030620D01*
X268915Y1023487D01*
X274167Y1016901D01*
X280123Y1010945D01*
X286709Y1005693D01*
X293842Y1001211D01*
X301432Y997556D01*
X309383Y994774D01*
X317595Y992899D01*
X325966Y991956D01*
X334390D01*
X342761Y992899D01*
X350973Y994774D01*
X358924Y997556D01*
X366514Y1001211D01*
X373647Y1005693D01*
X380233Y1010945D01*
X386189Y1016901D01*
X391441Y1023487D01*
X395923Y1030620D01*
X399578Y1038210D01*
X402360Y1046161D01*
X404235Y1054373D01*
X405178Y1062744D01*
Y1071168D01*
X404235Y1079539D01*
X402360Y1087751D01*
X399578Y1095703D01*
X395923Y1103292D01*
X391441Y1110425D01*
X386189Y1117011D01*
X380233Y1122968D01*
X373647Y1128220D01*
X366514Y1132701D01*
X358924Y1136356D01*
X350973Y1139138D01*
X342761Y1141013D01*
X334390Y1141956D01*
D02*
G37*
G36*
X2041453Y911687D02*
X2035157D01*
X2028939Y910702D01*
X2022951Y908756D01*
X2017341Y905898D01*
X2012247Y902197D01*
X2007795Y897745D01*
X2004094Y892651D01*
X2001236Y887041D01*
X1999290Y881053D01*
X1998305Y874835D01*
Y868539D01*
X1999290Y862320D01*
X2001236Y856332D01*
X2004094Y850722D01*
X2007795Y845629D01*
X2012247Y841176D01*
X2017341Y837476D01*
X2022951Y834617D01*
X2028939Y832672D01*
X2035157Y831687D01*
X2041453D01*
X2047672Y832672D01*
X2053660Y834617D01*
X2059270Y837476D01*
X2064364Y841176D01*
X2068816Y845629D01*
X2072516Y850722D01*
X2075375Y856332D01*
X2077320Y862320D01*
X2078305Y868539D01*
Y874835D01*
X2077320Y881053D01*
X2075375Y887041D01*
X2072516Y892651D01*
X2068816Y897745D01*
X2064364Y902197D01*
X2059270Y905898D01*
X2053660Y908756D01*
X2047672Y910702D01*
X2041453Y911687D01*
D02*
G37*
G36*
X1451211D02*
X1444915D01*
X1438696Y910702D01*
X1432708Y908756D01*
X1427098Y905898D01*
X1422005Y902197D01*
X1417553Y897745D01*
X1413852Y892651D01*
X1410993Y887041D01*
X1409048Y881053D01*
X1408063Y874835D01*
Y868539D01*
X1409048Y862320D01*
X1410993Y856332D01*
X1413852Y850722D01*
X1417553Y845629D01*
X1422005Y841176D01*
X1427098Y837476D01*
X1432708Y834617D01*
X1438696Y832672D01*
X1444915Y831687D01*
X1451211D01*
X1457430Y832672D01*
X1463418Y834617D01*
X1469028Y837476D01*
X1474121Y841176D01*
X1478573Y845629D01*
X1482274Y850722D01*
X1485132Y856332D01*
X1487078Y862320D01*
X1488063Y868539D01*
Y874835D01*
X1487078Y881053D01*
X1485132Y887041D01*
X1482274Y892651D01*
X1478573Y897745D01*
X1474121Y902197D01*
X1469028Y905898D01*
X1463418Y908756D01*
X1457430Y910702D01*
X1451211Y911687D01*
D02*
G37*
G36*
X862922D02*
X856626D01*
X850407Y910702D01*
X844419Y908756D01*
X838809Y905898D01*
X833716Y902197D01*
X829264Y897745D01*
X825563Y892651D01*
X822704Y887041D01*
X820759Y881053D01*
X819774Y874835D01*
Y868539D01*
X820759Y862320D01*
X822704Y856332D01*
X825563Y850722D01*
X829264Y845629D01*
X833716Y841176D01*
X838809Y837476D01*
X844419Y834617D01*
X850407Y832672D01*
X856626Y831687D01*
X862922D01*
X869141Y832672D01*
X875129Y834617D01*
X880739Y837476D01*
X885832Y841176D01*
X890284Y845629D01*
X893985Y850722D01*
X896843Y856332D01*
X898789Y862320D01*
X899774Y868539D01*
Y874835D01*
X898789Y881053D01*
X896843Y887041D01*
X893985Y892651D01*
X890284Y897745D01*
X885832Y902197D01*
X880739Y905898D01*
X875129Y908756D01*
X869141Y910702D01*
X862922Y911687D01*
D02*
G37*
G36*
X333326D02*
X327030D01*
X320811Y910702D01*
X314823Y908756D01*
X309213Y905898D01*
X304120Y902197D01*
X299668Y897745D01*
X295967Y892651D01*
X293109Y887041D01*
X291163Y881053D01*
X290178Y874835D01*
Y868539D01*
X291163Y862320D01*
X293109Y856332D01*
X295967Y850722D01*
X299668Y845629D01*
X304120Y841176D01*
X309213Y837476D01*
X314823Y834617D01*
X320811Y832672D01*
X327030Y831687D01*
X333326D01*
X339545Y832672D01*
X345533Y834617D01*
X351143Y837476D01*
X356236Y841176D01*
X360688Y845629D01*
X364389Y850722D01*
X367247Y856332D01*
X369193Y862320D01*
X370178Y868539D01*
Y874835D01*
X369193Y881053D01*
X367247Y887041D01*
X364389Y892651D01*
X360688Y897745D01*
X356236Y902197D01*
X351143Y905898D01*
X345533Y908756D01*
X339545Y910702D01*
X333326Y911687D01*
D02*
G37*
G36*
X1156643Y824770D02*
X1150897D01*
X1145223Y823871D01*
X1139759Y822096D01*
X1134640Y819488D01*
X1129992Y816111D01*
X1125929Y812048D01*
X1122552Y807400D01*
X1119944Y802281D01*
X1118169Y796817D01*
X1117270Y791143D01*
Y785397D01*
X1118169Y779723D01*
X1119944Y774259D01*
X1122552Y769140D01*
X1125929Y764492D01*
X1129992Y760429D01*
X1134640Y757052D01*
X1139759Y754444D01*
X1145223Y752669D01*
X1150897Y751770D01*
X1156643D01*
X1162317Y752669D01*
X1167781Y754444D01*
X1172900Y757052D01*
X1177548Y760429D01*
X1181611Y764492D01*
X1184988Y769140D01*
X1187596Y774259D01*
X1189371Y779723D01*
X1190270Y785397D01*
Y791143D01*
X1189371Y796817D01*
X1187596Y802281D01*
X1184988Y807400D01*
X1181611Y812048D01*
X1177548Y816111D01*
X1172900Y819488D01*
X1167781Y822096D01*
X1162317Y823871D01*
X1156643Y824770D01*
D02*
G37*
G36*
X1747193Y820960D02*
X1741447D01*
X1735773Y820061D01*
X1730309Y818286D01*
X1725190Y815678D01*
X1720542Y812301D01*
X1716479Y808238D01*
X1713102Y803590D01*
X1710494Y798471D01*
X1708719Y793007D01*
X1707820Y787333D01*
Y781587D01*
X1708719Y775913D01*
X1710494Y770449D01*
X1713102Y765330D01*
X1716479Y760682D01*
X1720542Y756619D01*
X1725190Y753242D01*
X1730309Y750634D01*
X1735773Y748859D01*
X1741447Y747960D01*
X1747193D01*
X1752867Y748859D01*
X1758331Y750634D01*
X1763450Y753242D01*
X1768098Y756619D01*
X1772161Y760682D01*
X1775538Y765330D01*
X1778146Y770449D01*
X1779921Y775913D01*
X1780820Y781587D01*
Y787333D01*
X1779921Y793007D01*
X1778146Y798471D01*
X1775538Y803590D01*
X1772161Y808238D01*
X1768098Y812301D01*
X1763450Y815678D01*
X1758331Y818286D01*
X1752867Y820061D01*
X1747193Y820960D01*
D02*
G37*
G36*
X599182Y896688D02*
X590758D01*
X582387Y895745D01*
X574175Y893871D01*
X566223Y891089D01*
X558634Y887434D01*
X551501Y882952D01*
X544915Y877700D01*
X538959Y871743D01*
X533707Y865157D01*
X529225Y858025D01*
X525570Y850435D01*
X522788Y842484D01*
X520913Y834271D01*
X519970Y825900D01*
Y817477D01*
X520913Y809106D01*
X522788Y800893D01*
X525570Y792942D01*
X529225Y785352D01*
X533707Y778220D01*
X538959Y771634D01*
X544915Y765677D01*
X551501Y760425D01*
X558634Y755943D01*
X566223Y752288D01*
X574175Y749506D01*
X582387Y747632D01*
X590758Y746688D01*
X599182D01*
X607553Y747632D01*
X615765Y749506D01*
X623717Y752288D01*
X631306Y755943D01*
X638439Y760425D01*
X645025Y765677D01*
X650981Y771634D01*
X656234Y778220D01*
X660715Y785352D01*
X664370Y792942D01*
X667152Y800893D01*
X669027Y809106D01*
X669970Y817477D01*
Y825900D01*
X669027Y834271D01*
X667152Y842484D01*
X664370Y850435D01*
X660715Y858025D01*
X656234Y865157D01*
X650981Y871743D01*
X645025Y877700D01*
X638439Y882952D01*
X631306Y887434D01*
X623717Y891089D01*
X615765Y893871D01*
X607553Y895745D01*
X599182Y896688D01*
D02*
G37*
G36*
X2308602Y896685D02*
X2300178D01*
X2291807Y895742D01*
X2283595Y893867D01*
X2275643Y891085D01*
X2268054Y887430D01*
X2260921Y882949D01*
X2254335Y877696D01*
X2248379Y871740D01*
X2243127Y865154D01*
X2238645Y858021D01*
X2234990Y850432D01*
X2232208Y842480D01*
X2230333Y834268D01*
X2229390Y825897D01*
Y817473D01*
X2230333Y809102D01*
X2232208Y800890D01*
X2234990Y792939D01*
X2238645Y785349D01*
X2243127Y778216D01*
X2248379Y771630D01*
X2254335Y765674D01*
X2260921Y760422D01*
X2268054Y755940D01*
X2275643Y752285D01*
X2283595Y749503D01*
X2291807Y747628D01*
X2300178Y746685D01*
X2308602D01*
X2316973Y747628D01*
X2325185Y749503D01*
X2333136Y752285D01*
X2340726Y755940D01*
X2347859Y760422D01*
X2354445Y765674D01*
X2360401Y771630D01*
X2365654Y778216D01*
X2370135Y785349D01*
X2373790Y792939D01*
X2376572Y800890D01*
X2378447Y809102D01*
X2379390Y817473D01*
Y825897D01*
X2378447Y834268D01*
X2376572Y842480D01*
X2373790Y850432D01*
X2370135Y858021D01*
X2365654Y865154D01*
X2360401Y871740D01*
X2354445Y877696D01*
X2347859Y882949D01*
X2340726Y887430D01*
X2333136Y891085D01*
X2325185Y893867D01*
X2316973Y895742D01*
X2308602Y896685D01*
D02*
G37*
%LPD*%
D18*
X808965Y1078630D02*
Y1115060D01*
Y1078630D02*
X834765Y1052830D01*
X1987496Y1078630D02*
X2013296Y1052830D01*
X1987496Y1078630D02*
Y1115060D01*
X1721412Y1323898D02*
X1747212Y1298098D01*
X1721412Y1323898D02*
Y1360328D01*
X1073769Y1323898D02*
X1099569Y1298098D01*
X1073769Y1323898D02*
Y1360328D01*
D19*
X1373730Y1070320D02*
D03*
X1523730D02*
D03*
X594970Y1312224D02*
D03*
Y821688D02*
D03*
X330178Y1066956D02*
D03*
Y1557492D02*
D03*
X2304390Y821685D02*
D03*
Y1312224D02*
D03*
D20*
X1175369Y1360328D02*
D03*
X1073769D02*
D03*
X2089096Y1115060D02*
D03*
X1987496D02*
D03*
X1823012Y1360328D02*
D03*
X1721412D02*
D03*
X910565Y1115060D02*
D03*
X808965D02*
D03*
D21*
X1099569Y1298098D02*
D03*
X1149569D02*
D03*
X1747212D02*
D03*
X1797212D02*
D03*
X834765Y1052830D02*
D03*
X884765D02*
D03*
X2013296D02*
D03*
X2063296D02*
D03*
D22*
X330178Y1362222D02*
D03*
Y1262222D02*
D03*
Y871687D02*
D03*
Y771687D02*
D03*
X2038305Y1362222D02*
D03*
Y1262222D02*
D03*
X1448063Y1362222D02*
D03*
Y1262222D02*
D03*
X594970Y1607490D02*
D03*
Y1507490D02*
D03*
X1772221Y1116954D02*
D03*
Y1016954D02*
D03*
Y1607490D02*
D03*
Y1507490D02*
D03*
X2038305Y871687D02*
D03*
Y771687D02*
D03*
X2304390Y1607493D02*
D03*
Y1507493D02*
D03*
Y1116954D02*
D03*
Y1016954D02*
D03*
X859774Y1362222D02*
D03*
Y1262222D02*
D03*
X1124578Y1607490D02*
D03*
Y1507490D02*
D03*
X1448063Y871687D02*
D03*
Y771687D02*
D03*
X859774Y871687D02*
D03*
Y771687D02*
D03*
X1124578Y1116954D02*
D03*
Y1016954D02*
D03*
X594970Y1116954D02*
D03*
Y1016954D02*
D03*
D23*
X1744320Y784460D02*
D03*
Y734460D02*
D03*
X1153770Y788270D02*
D03*
Y738270D02*
D03*
X859767Y1636630D02*
D03*
Y1586630D02*
D03*
X2038280Y1636630D02*
D03*
Y1586630D02*
D03*
M02*
